ply
format ascii 1.0
element vertex 256
comment vertices
property float x
property float y
property float z
end_header
1.00585317611694336 -0.751901328563690186 0.480065137147903442
-1.25451815128326416 4.43348217010498047 0.706112146377563477
-2.26415038108825684 -2.28015327453613281 0.433282315731048584
0.587727069854736328 -4.84771585464477539 0.755038797855377197
-1.50491249561309814 2.50245761871337891 0.69553077220916748
1.06500136852264404 2.39993429183959961 0.626498281955718994
-0.151561334729194641 1.8329005241394043 0.571963012218475342
-1.06659579277038574 -1.04229283332824707 0.930261135101318359
2.38158106803894043 -3.06069660186767578 0.882295906543731689
0.766969799995422363 -1.65367269515991211 0.51980292797088623
-1.4120640754699707 2.77941989898681641 0.595620334148406982
1.88447010517120361 1.86951041221618652 0.875755190849304199
0.744722723960876465 2.4506683349609375 0.606263399124145508
0.0415244102478027344 -0.684181869029998779 0.23079034686088562
-1.31705224514007568 -2.8445744514465332 0.738568127155303955
-1.45519518852233887 0.840294599533081055 0.470339834690093994
1.37296926975250244 -1.99590229988098145 0.384600996971130371
1.03990137577056885 -4.11548757553100586 0.717067718505859375
0.344030052423477173 -3.76118326187133789 0.831534326076507568
0.573366999626159668 0.0796101689338684082 0.540557384490966797
-1.57172536849975586 -1.81323277950286865 0.698034465312957764
-2.14663600921630859 0.758365988731384277 0.751192808151245117
0.635848045349121094 2.41814827919006348 0.48512229323387146
-1.14519298076629639 2.25057363510131836 0.582225561141967773
-1.65715467929840088 0.374584019184112549 0.526459932327270508
1.26477956771850586 -3.0897984504699707 0.635975956916809082
0.543173909187316895 -1.82418978214263916 0.42027696967124939
1.92489099502563477 -1.7870481014251709 0.879449725151062012
-1.83299446105957031 -2.23989748954772949 0.531255960464477539
-1.54632484912872314 0.924795567989349365 0.50730288028717041
0.979865610599517822 2.49007463455200195 0.565492868423461914
0.183820784091949463 -1.89393520355224609 0.487292319536209106
1.51695537567138672 -1.00484180450439453 0.684830546379089355
-1.58314943313598633 3.4389808177947998 0.641300320625305176
0.663035929203033447 2.53407025337219238 0.56412041187286377
-0.1865091472864151 3.77434086799621582 0.70284724235534668
0.773051619529724121 -2.26875853538513184 0.37871628999710083
-0.720093131065368652 0.864712893962860107 0.684130251407623291
0.0337815433740615845 2.53481268882751465 0.708096325397491455
-1.31360113620758057 -2.84969973564147949 0.746561050415039062
-1.54009616374969482 -1.78334736824035645 0.568563997745513916
1.16318297386169434 -0.996937930583953857 0.448797017335891724
-0.700291275978088379 0.992403686046600342 0.564654350280761719
1.84955847263336182 -3.45276331901550293 0.878603577613830566
-1.137795090675354 0.909322261810302734 0.469264686107635498
0.221043705940246582 1.8054811954498291 0.482542693614959717
-1.28247165679931641 -1.88337540626525879 0.686626315116882324
1.25089645385742188 3.07002425193786621 0.767901062965393066
0.914153575897216797 -0.199121326208114624 0.654106020927429199
-1.62592315673828125 1.09144163131713867 0.583389520645141602
-1.57032418251037598 2.77257585525512695 0.618520259857177734
0.165739297866821289 -1.23105931282043457 0.463666081428527832
0.700894534587860107 3.13429379463195801 0.452519536018371582
-0.850229263305664062 1.071952223777771 0.496095359325408936
-0.628737688064575195 -2.22337937355041504 0.55231165885925293
0.173849359154701233 2.31160688400268555 0.518930256366729736
0.519519925117492676 -4.16733551025390625 0.797185778617858887
-1.58084642887115479 2.86296701431274414 0.575860977172851562
1.39369821548461914 1.79149496555328369 0.741428256034851074
-1.5529707670211792 1.73673450946807861 0.553075850009918213
-0.926499247550964355 4.38720226287841797 0.86822807788848877
0.101904094219207764 -0.369173228740692139 0.609627425670623779
-1.74393856525421143 4.02033329010009766 0.713702499866485596
0.937798023223876953 -1.42541658878326416 0.293384641408920288
0.731547176837921143 -2.26584506034851074 0.453761965036392212
0.611423730850219727 -1.43449938297271729 0.49880683422088623
-1.44045364856719971 0.679389894008636475 0.507314085960388184
0.976864755153656006 1.03423523902893066 0.659418046474456787
-1.52178168296813965 2.52869653701782227 0.538990378379821777
1.13826549053192139 -4.17198801040649414 0.550173699855804443
-1.59007298946380615 2.52747631072998047 0.536313652992248535
1.81284964084625244 -2.43922877311706543 0.718738734722137451
1.40857875347137451 -4.86884117126464844 0.794405877590179443
-1.61949527263641357 -2.00929594039916992 0.579257071018218994
-2.26424336433410645 0.745271921157836914 0.741495370864868164
0.242255806922912598 -1.2047654390335083 0.534099876880645752
0.807449579238891602 2.39244437217712402 0.501196324825286865
1.60353779792785645 -1.64829981327056885 0.814307212829589844
0.148198157548904419 -1.5885770320892334 0.564184784889221191
1.34043264389038086 2.46212673187255859 0.747059345245361328
0.0423363000154495239 2.49966049194335938 0.522463321685791016
-2.19804501533508301 -1.61008143424987793 0.521037817001342773
0.448623001575469971 2.70122909545898438 0.610802769660949707
1.45044434070587158 -2.35360074043273926 0.590421319007873535
0.325407147407531738 -1.02721881866455078 0.579026222229003906
-0.25583195686340332 -2.22648239135742188 0.526453375816345215
-1.50616621971130371 1.47883963584899902 0.52417910099029541
0.623841524124145508 2.35501360893249512 0.534059643745422363
1.95277774333953857 -3.49920439720153809 0.870185732841491699
-1.51332759857177734 1.36531937122344971 0.657283782958984375
-1.56122791767120361 0.807743191719055176 0.483390897512435913
-2.23889684677124023 1.39096689224243164 0.805602014064788818
0.743953347206115723 2.64064240455627441 0.53493344783782959
-0.834141850471496582 2.85590910911560059 0.731845259666442871
0.748946487903594971 -2.80863356590270996 0.604846835136413574
0.984513759613037109 -1.58007776737213135 0.61679917573928833
1.73140311241149902 2.99097442626953125 0.577932119369506836
1.58500874042510986 -0.719007134437561035 0.695437788963317871
-1.62662434577941895 -2.03290581703186035 0.636146664619445801
-1.32816767692565918 -1.7568657398223877 0.578478097915649414
-1.20650911331176758 -0.476282715797424316 0.489311724901199341
0.36186516284942627 2.65589094161987305 0.524318099021911621
0.85527646541595459 -2.35261106491088867 0.397017300128936768
0.9533882737159729 -0.7349814772605896 0.467175871133804321
-0.511661648750305176 1.59419620037078857 0.529807686805725098
-0.80010533332824707 0.956816554069519043 0.46239924430847168
-1.4949190616607666 1.90385699272155762 0.600048661231994629
0.256255507469177246 -2.28131484985351562 0.542338252067565918
-1.43435490131378174 -1.40335226058959961 0.683970630168914795
0.507350325584411621 -1.26971006393432617 0.0834867656230926514
0.759939670562744141 -3.5147242546081543 0.541422247886657715
2.42093038558959961 -2.83610796928405762 0.692380785942077637
1.12566757202148438 -4.36621809005737305 0.641466021537780762
-1.04640567302703857 -1.87575638294219971 0.548191845417022705
-1.26917004585266113 -2.72034168243408203 0.703918337821960449
-0.0887569636106491089 3.62276840209960938 0.787098228931427002
0.891806364059448242 -1.23437595367431641 0.61465144157409668
-1.48967587947845459 0.810487926006317139 0.46887814998626709
0.596941709518432617 1.62489962577819824 0.486161619424819946
1.30109965801239014 -0.674063742160797119 0.521487712860107422
1.95461618900299072 -1.95397508144378662 0.683886587619781494
-1.39850473403930664 2.46602392196655273 0.580683112144470215
-1.26892983913421631 0.643638670444488525 0.518981039524078369
-1.31600892543792725 -1.70067548751831055 0.569577991962432861
1.22809386253356934 -2.41718769073486328 0.566206574440002441
1.49790120124816895 1.9386211633682251 0.710422635078430176
-1.30972599983215332 2.51543331146240234 0.64168548583984375
-2.41289591789245605 -1.74127078056335449 0.305429369211196899
0.100946053862571716 -1.16240227222442627 0.302133500576019287
-1.56474602222442627 2.82154703140258789 0.591397404670715332
-0.44364812970161438 3.06049919128417969 0.539593935012817383
0.0446944534778594971 2.51003217697143555 0.615792810916900635
-1.1791527271270752 0.677612662315368652 0.472143083810806274
-1.52965354919433594 2.28100872039794922 0.64931875467300415
-0.840342044830322266 1.35667848587036133 0.657888174057006836
1.91822588443756104 -3.23766088485717773 0.741276919841766357
-1.46841037273406982 0.18530254065990448 0.323131948709487915
0.487926065921783447 2.77845525741577148 0.535691738128662109
-1.64556574821472168 4.09368991851806641 0.860083460807800293
0.586168467998504639 -1.47409141063690186 0.587369620800018311
0.394425004720687866 -2.66161966323852539 0.531497955322265625
1.57442009449005127 -1.54456281661987305 0.641343593597412109
-1.52687883377075195 2.91043996810913086 0.557533681392669678
0.0380432456731796265 1.97008323669433594 0.682512044906616211
0.630746126174926758 -2.09612154960632324 0.419744253158569336
0.773859739303588867 -2.18495941162109375 0.444703191518783569
-2.23276424407958984 2.75781941413879395 0.822340130805969238
0.210486888885498047 -1.27948033809661865 0.570437073707580566
-1.11677455902099609 2.2671058177947998 0.5535125732421875
0.341567724943161011 2.6556098461151123 0.487573832273483276
0.613809645175933838 2.22372817993164062 0.523780763149261475
0.940240859985351562 1.05786669254302979 0.651002585887908936
-0.975667357444763184 2.11641907691955566 0.640246927738189697
0.0246071219444274902 3.08356547355651855 0.757437586784362793
-1.20932281017303467 -2.27998685836791992 0.55199354887008667
-2.2917943000793457 0.718979418277740479 0.716605663299560547
0.151502087712287903 -0.388625919818878174 0.547602295875549316
-0.994169950485229492 4.17363929748535156 0.683246970176696777
-0.720265388488769531 0.820161938667297363 0.609139442443847656
-1.415397047996521 -1.89007902145385742 0.726885616779327393
-1.38785409927368164 2.50843620300292969 0.540941178798675537
-0.523260593414306641 2.48827838897705078 0.617203652858734131
0.981327533721923828 -0.222293823957443237 0.616600155830383301
0.913651823997497559 1.9985274076461792 0.465694397687911987
0.715450048446655273 2.43315792083740234 0.494206905364990234
0.940677762031555176 -4.14347648620605469 0.739286422729492188
1.2529139518737793 2.45897245407104492 0.698386430740356445
0.937701582908630371 2.63519144058227539 0.611279010772705078
0.895670175552368164 -0.28099396824836731 0.670511722564697266
0.498592257499694824 -2.68844223022460938 0.603466331958770752
0.533588051795959473 -4.12575387954711914 0.791016757488250732
0.484415113925933838 2.21348738670349121 0.558685183525085449
-1.36370241641998291 0.640816032886505127 0.482111811637878418
0.874317407608032227 -1.80788755416870117 0.465771287679672241
-1.54770290851593018 1.37911510467529297 0.673758089542388916
0.278105318546295166 -2.26130390167236328 0.583354771137237549
-1.21597707271575928 -1.40746772289276123 0.558273434638977051
1.59674394130706787 -2.0140841007232666 0.706686854362487793
-2.25029850006103516 2.71615457534790039 0.76845550537109375
0.520198643207550049 1.07499027252197266 0.552389323711395264
0.760666489601135254 -2.78183698654174805 0.557227075099945068
0.941320180892944336 1.96992945671081543 0.488511949777603149
0.221699059009552002 -1.07062649726867676 0.432128340005874634
1.2474980354309082 3.03390860557556152 0.77347797155380249
1.5352168083190918 1.97948873043060303 0.715473830699920654
1.59879946708679199 -0.858488678932189941 0.665541768074035645
-0.79241943359375 2.87282228469848633 0.730191230773925781
0.942696988582611084 1.06242716312408447 0.651384353637695312
0.632994651794433594 -0.531789183616638184 0.434066355228424072
-1.51789093017578125 1.40210914611816406 0.651169061660766602
0.10360446572303772 -0.25081518292427063 0.532907366752624512
-1.79363322257995605 2.9516901969909668 0.681214213371276855
-1.73573589324951172 0.761985361576080322 0.528855443000793457
-0.77019202709197998 0.827169358730316162 0.649338126182556152
1.31796526908874512 -2.09886837005615234 0.443110108375549316
0.518728196620941162 -1.8184049129486084 0.506479561328887939
0.557114362716674805 -2.5496361255645752 0.53771054744720459
0.779773592948913574 -2.30631518363952637 0.421897858381271362
-1.28808605670928955 -2.91899919509887695 0.726994454860687256
-1.14364957809448242 -1.65405309200286865 0.48723486065864563
0.759844481945037842 2.44343852996826172 0.556447863578796387
0.694435477256774902 2.92633867263793945 0.468042552471160889
0.695616960525512695 -1.56116926670074463 0.557820677757263184
-0.855870306491851807 2.8597872257232666 0.70643770694732666
0.654891133308410645 -2.77681684494018555 0.577457427978515625
0.879553616046905518 -4.15673828125 0.61575925350189209
0.0327656418085098267 -1.00461351871490479 0.58997046947479248
0.352420300245285034 3.19115400314331055 0.523106992244720459
0.647805690765380859 2.56812906265258789 0.495748817920684814
-1.33355224132537842 -1.88186252117156982 0.529902815818786621
0.765657544136047363 3.10626792907714844 0.53114783763885498
0.647254228591918945 -3.42020511627197266 0.556987404823303223
-1.30330920219421387 -1.90147674083709717 0.623393118381500244
-1.54127299785614014 2.23907566070556641 0.722787320613861084
-0.934963524341583252 4.35241794586181641 0.840508222579956055
-1.434609055519104 2.09114956855773926 0.575682997703552246
-1.65474379062652588 2.51625514030456543 0.588236629962921143
0.896548151969909668 -4.24184370040893555 0.747032403945922852
-1.65946972370147705 3.85829281806945801 0.661057829856872559
-0.95902717113494873 4.3426666259765625 0.845716714859008789
0.00926022976636886597 2.6772453784942627 0.696767449378967285
-0.507097005844116211 1.93970060348510742 0.529978752136230469
0.869598746299743652 -1.80834543704986572 0.524703621864318848
0.453177928924560547 2.27362680435180664 0.546620190143585205
-1.2571948766708374 2.68989157676696777 0.575439751148223877
1.01637732982635498 -0.730975866317749023 0.464908003807067871
-0.0233264416456222534 3.4670870304107666 0.752033591270446777
0.704986512660980225 2.28580403327941895 0.51003795862197876
1.91484522819519043 1.50886118412017822 0.888431429862976074
0.536050319671630859 -1.49681484699249268 0.566778421401977539
0.719421148300170898 -2.20298624038696289 0.442148506641387939
-1.54441273212432861 -1.44810891151428223 0.687864899635314941
0.912938237190246582 2.30886650085449219 0.629292607307434082
0.247643500566482544 -4.34148120880126953 0.588889718055725098
0.795286655426025391 -2.32833385467529297 0.4242686927318573
0.43008384108543396 -3.43635225296020508 0.57461845874786377
0.0398465245962142944 1.97885668277740479 0.66357731819152832
-1.830047607421875 -2.10801196098327637 0.61727607250213623
-1.5322190523147583 0.771197497844696045 0.45758289098739624
-1.41456806659698486 2.28108692169189453 0.692274332046508789
1.52468383312225342 -2.45396733283996582 0.624899148941040039
0.667898952960968018 -2.27806282043457031 0.444672256708145142
0.51063305139541626 2.91939353942871094 0.567938327789306641
1.13419246673583984 -1.32839620113372803 0.563152432441711426
-1.47159171104431152 -2.04333209991455078 0.728217959403991699
-1.33252525329589844 -1.68019819259643555 0.523090898990631104
1.5046541690826416 -1.17320835590362549 0.62234032154083252
0.717130780220031738 -1.36970317363739014 0.443718075752258301
-1.52626895904541016 2.81666183471679688 0.580320000648498535
0.92920839786529541 -0.754168868064880371 0.497885704040527344
1.66890740394592285 -0.625514626502990723 0.650678753852844238
0.0173895135521888733 2.00730800628662109 0.490803509950637817
1.84813213348388672 -2.25028109550476074 0.540137648582458496
0.263952672481536865 -2.30475997924804688 0.573279619216918945
1.47455084323883057 1.96088266372680664 0.684599041938781738
1.57546484470367432 -1.04745185375213623 0.725219070911407471
