ply
format ascii 1.0
element vertex 176
comment vertices
property float x
property float y
property float z
end_header
0.740793526172637939 -2.73606634140014648 0.565992355346679688
0.763174891471862793 2.49186968803405762 0.539499521255493164
-1.51103627681732178 1.40713334083557129 0.617782413959503174
0.700578153133392334 2.5243983268737793 0.54836583137512207
-1.25293433666229248 -2.79889583587646484 0.691324472427368164
0.767061233520507812 -2.27710342407226562 0.431844204664230347
-1.56861090660095215 2.8757319450378418 0.538936734199523926
0.982057034969329834 -0.720634996891021729 0.453804552555084229
-1.48981308937072754 0.802686691284179688 0.414556384086608887
0.721758663654327393 2.51547813415527344 0.537194788455963135
-1.15622627735137939 -1.08038759231567383 0.910470187664031982
-1.5310746431350708 2.28570151329040527 0.635720193386077881
-1.45941817760467529 -1.85086989402770996 0.56032949686050415
-1.67529952526092529 -2.0154261589050293 0.622305989265441895
1.57814395427703857 -1.1667783260345459 0.707953929901123047
0.024991162121295929 2.56110906600952148 0.678285658359527588
1.0391688346862793 -4.04669284820556641 0.71709442138671875
0.534814834594726562 -1.4804995059967041 0.569852352142333984
-1.70946133136749268 4.07578372955322266 0.858688831329345703
-0.736355304718017578 0.835243701934814453 0.584002494812011719
-1.56368803977966309 -1.88323473930358887 0.586941242218017578
0.157712608575820923 -0.373493552207946777 0.570305407047271729
-0.721435546875 0.829261481761932373 0.570208311080932617
-1.5166008472442627 1.39371025562286377 0.623060464859008789
-2.23549604415893555 2.68968796730041504 0.762413144111633301
-1.59718954563140869 2.91429042816162109 0.579986631870269775
-2.31260204315185547 0.737776458263397217 0.767106354236602783
1.27804255485534668 3.02705097198486328 0.739503800868988037
-0.817196071147918701 2.86433744430541992 0.718613862991333008
0.758568465709686279 -2.29819560050964355 0.387485772371292114
1.605995774269104 -1.71153664588928223 0.740455985069274902
-1.27557754516601562 -2.84476780891418457 0.598656177520751953
0.64758908748626709 2.70943760871887207 0.609757959842681885
0.999366343021392822 -0.725346088409423828 0.555833578109741211
-1.31651902198791504 2.60507869720458984 0.785479843616485596
1.26114809513092041 2.46821069717407227 0.748917043209075928
-0.907331526279449463 4.35788679122924805 0.813571035861968994
-1.47222340106964111 0.772922277450561523 0.44608423113822937
0.429219841957092285 -1.49537372589111328 0.340368568897247314
0.963161230087280273 1.0617218017578125 0.651067852973937988
0.241577222943305969 -2.28076982498168945 0.533856809139251709
-0.0163253545761108398 3.16214561462402344 0.731505393981933594
0.770248174667358398 -2.30476760864257812 0.409085005521774292
0.766408205032348633 -2.2920689582824707 0.395626634359359741
-1.56938719749450684 2.86410713195800781 0.58198624849319458
0.729885220527648926 2.51191067695617676 0.581574916839599609
-0.0678830146789550781 3.61560630798339844 0.731192350387573242
-0.819443404674530029 2.854766845703125 0.727017760276794434
0.677756309509277344 2.54844069480895996 0.503218293190002441
-1.50098919868469238 0.804584145545959473 0.422635704278945923
-1.48767626285552979 0.775687277317047119 0.455916613340377808
0.0286847390234470367 1.93128752708435059 0.681711137294769287
0.949825763702392578 1.07609152793884277 0.626074552536010742
0.525296449661254883 -1.47268295288085938 0.50527721643447876
0.518659353256225586 -1.48062610626220703 0.544875621795654297
-0.734648048877716064 0.836061596870422363 0.571699380874633789
-1.52881848812103271 1.365386962890625 0.591126024723052979
-0.063225865364074707 3.47753071784973145 0.802951574325561523
-1.52725136280059814 2.28160524368286133 0.63651353120803833
0.931935429573059082 -0.238553360104560852 0.602866470813751221
0.735519766807556152 -2.80227994918823242 0.562061190605163574
-1.58862709999084473 -1.8918919563293457 0.59611666202545166
-1.21013009548187256 -2.78879714012145996 0.716121792793273926
-1.48429703712463379 0.807082831859588623 0.428337842226028442
0.725000381469726562 2.52349185943603516 0.540220797061920166
1.61692821979522705 -1.7755434513092041 0.700018465518951416
0.720007061958312988 2.52895545959472656 0.556294858455657959
-1.33497202396392822 0.829146206378936768 0.573362112045288086
1.25325930118560791 2.46605420112609863 0.743055760860443115
1.50151801109313965 1.93407094478607178 0.738401293754577637
1.58867764472961426 -0.753688275814056396 0.625851750373840332
1.52227842807769775 -2.39734005928039551 0.598828792572021484
0.692045450210571289 2.60841155052185059 0.550699591636657715
-1.58046591281890869 2.87253189086914062 0.543684780597686768
-1.48018479347229004 0.806627631187438965 0.436307072639465332
0.763794481754302979 -2.28411388397216797 0.371162146329879761
-1.41675496101379395 -1.9117053747177124 0.648514449596405029
0.968737304210662842 -0.717399477958679199 0.44810757040977478
-1.5837785005569458 2.86771845817565918 0.543645083904266357
0.476785629987716675 -2.31724429130554199 0.507222652435302734
0.999884665012359619 -0.748306155204772949 0.4622974693775177
-1.23802196979522705 -2.79082942008972168 0.595758676528930664
-2.31765103340148926 0.673736810684204102 0.773857474327087402
0.705298721790313721 2.5261847972869873 0.542089283466339111
-1.56150031089782715 2.27721428871154785 0.64400249719619751
-1.57748842239379883 2.86842179298400879 0.598132431507110596
-1.58508038520812988 2.86744928359985352 0.593212664127349854
-0.0194382034242153168 3.16982889175415039 0.756208539009094238
1.04995560646057129 -4.02315759658813477 0.697313606739044189
-1.68461143970489502 4.0926361083984375 0.876230239868164062
0.229760020971298218 -2.18736362457275391 0.589627087116241455
-0.0516641363501548767 3.59460926055908203 0.779723644256591797
1.48442769050598145 -1.1356513500213623 0.638123750686645508
0.884842216968536377 -0.857548117637634277 0.453345954418182373
0.75465846061706543 -2.29456710815429688 0.401221036911010742
0.544861078262329102 -4.1547389030456543 0.840832173824310303
0.232457816600799561 -2.27956843376159668 0.543222010135650635
-0.815857291221618652 2.83860254287719727 0.704005956649780273
0.157029807567596436 -0.375187456607818604 0.573864519596099854
0.961970984935760498 1.06480169296264648 0.651953577995300293
1.24306929111480713 3.03841781616210938 0.752104759216308594
0.552493095397949219 -1.76813733577728271 0.405278772115707397
0.733841001987457275 2.5175940990447998 0.540875256061553955
-1.51459968090057373 1.3956533670425415 0.623483359813690186
-1.53495049476623535 2.29179525375366211 0.645587444305419922
-2.24734401702880859 2.68539118766784668 0.766777515411376953
-1.24724471569061279 -2.81801557540893555 0.670998930931091309
0.712974011898040771 2.52720189094543457 0.551763415336608887
1.57663464546203613 -1.56310057640075684 0.706919491291046143
1.505157470703125 1.93585574626922607 0.762414038181304932
-0.823682188987731934 2.86304187774658203 0.70969092845916748
-1.65405547618865967 -1.96003854274749756 0.636860668659210205
0.0084117446094751358 2.54010295867919922 0.667602598667144775
-1.48736035823822021 0.797441065311431885 0.45050579309463501
0.534903943538665771 -1.48440968990325928 0.565551519393920898
-0.821989238262176514 2.85708951950073242 0.721167802810668945
-1.55794835090637207 2.86200881004333496 0.610757946968078613
1.49610066413879395 1.93789970874786377 0.749948978424072266
1.23741734027862549 2.99370694160461426 0.72090303897857666
1.51990628242492676 -2.4114372730255127 0.595072269439697266
0.983298718929290771 -0.727712929248809814 0.471871912479400635
-0.890640079975128174 4.34628677368164062 0.821029424667358398
-1.48137247562408447 0.793642699718475342 0.42519792914390564
0.0271731168031692505 2.5398249626159668 0.668413102626800537
0.507540583610534668 -1.47480654716491699 0.534959912300109863
0.732107639312744141 2.34777641296386719 0.618331730365753174
0.963529288768768311 1.06076347827911377 0.653041362762451172
-1.49528443813323975 0.814515411853790283 0.433881998062133789
0.706777274608612061 2.52649354934692383 0.540749430656433105
-1.53429710865020752 2.83739566802978516 0.617360234260559082
0.703383743762969971 2.54411530494689941 0.566164314746856689
-0.820013463497161865 2.85603141784667969 0.721113145351409912
0.928290426731109619 -0.237168610095977783 0.608592569828033447
-0.740146160125732422 0.8411293625831604 0.578156352043151855
-0.0751106441020965576 2.84315109252929688 0.731317400932312012
0.738419532775878906 -2.79885172843933105 0.563444793224334717
-2.24460816383361816 2.68977141380310059 0.766840517520904541
0.146747931838035583 -0.378300398588180542 0.561002850532531738
0.974460601806640625 -0.714006423950195312 0.466164529323577881
-0.0281313657760620117 3.29942798614501953 0.784251034259796143
0.61296766996383667 2.71836352348327637 0.651758372783660889
-0.805392265319824219 2.83876132965087891 0.711667358875274658
-1.52066624164581299 1.39962184429168701 0.62244182825088501
-0.0370495282113552094 3.32163763046264648 0.7813262939453125
0.524044156074523926 -1.47415268421173096 0.543481349945068359
0.764276981353759766 -2.2909390926361084 0.394492924213409424
-1.56665050983428955 -1.88438594341278076 0.604253888130187988
-1.47871851921081543 0.793964087963104248 0.427968293428421021
-2.30647611618041992 0.730469405651092529 0.768419384956359863
1.51957142353057861 -2.4282989501953125 0.590728104114532471
-0.735698461532592773 0.839098751544952393 0.584936201572418213
0.0119598247110843658 1.94850432872772217 0.681757688522338867
0.972600460052490234 -0.710754096508026123 0.456860840320587158
1.5002208948135376 1.9340670108795166 0.749290645122528076
-1.54263246059417725 2.43681955337524414 0.687569618225097656
1.4806828498840332 -2.4830327033996582 0.585773169994354248
0.0309803280979394913 1.93819594383239746 0.678963661193847656
-1.53626418113708496 2.25103449821472168 0.65943443775177002
-1.58897101879119873 1.37365055084228516 0.591389358043670654
-1.59438240528106689 2.86690783500671387 0.582211852073669434
-1.25105631351470947 -2.79028892517089844 0.696815609931945801
0.230539321899414062 -2.27669286727905273 0.540496289730072021
1.09778618812561035 -3.9694674015045166 0.754597902297973633
0.787891507148742676 -2.29317045211791992 0.429573565721511841
1.26226699352264404 2.47249436378479004 0.750611722469329834
-1.61311531066894531 -1.91352927684783936 0.582623660564422607
-1.54210591316223145 2.28963923454284668 0.643241941928863525
1.49346041679382324 -1.08107459545135498 0.627186954021453857
0.736418068408966064 2.57353758811950684 0.560458242893218994
0.534434854984283447 -4.16031694412231445 0.837496161460876465
1.58912193775177002 -0.769216537475585938 0.623502731323242188
1.03209090232849121 -4.04390048980712891 0.692461013793945312
0.543055713176727295 -4.16169834136962891 0.839061200618743896
0.702344655990600586 2.53107142448425293 0.55092322826385498
0.767015993595123291 -2.28736734390258789 0.386991620063781738
0.965913295745849609 -0.708805322647094727 0.445061743259429932
