ply
format ascii 1.0
element vertex 256
comment vertices
property float x
property float y
property float z
end_header
0.981197178363800049 -0.728765368461608887 0.479110747575759888
-1.22497105598449707 4.47063350677490234 0.67894512414932251
-2.25200533866882324 -2.25530529022216797 0.412019938230514526
0.561439156532287598 -4.84779977798461914 0.766805112361907959
-1.52766406536102295 2.30844855308532715 0.717983722686767578
1.26775276660919189 2.47917294502258301 0.695680379867553711
-0.00159524381160736084 1.92042803764343262 0.641351282596588135
-1.09878075122833252 -1.00220859050750732 0.996003806591033936
2.41413450241088867 -3.03996419906616211 0.769548773765563965
0.528389155864715576 -1.51146173477172852 0.580801129341125488
-1.55097103118896484 2.86693358421325684 0.570645034313201904
1.92018222808837891 1.79746830463409424 1.00135743618011475
0.691293299198150635 2.4422297477722168 0.508721888065338135
0.0389852374792098999 -0.704345762729644775 0.253204524517059326
-1.25392162799835205 -2.81300163269042969 0.714998364448547363
-1.49374651908874512 0.797984719276428223 0.445029944181442261
1.3425133228302002 -2.01646828651428223 0.438281089067459106
1.01762974262237549 -4.08053922653198242 0.636842131614685059
0.351143538951873779 -3.74314475059509277 0.871539711952209473
0.573978543281555176 0.0572986267507076263 0.603752732276916504
-1.45142614841461182 -1.87931621074676514 0.702636837959289551
-2.28368258476257324 0.747414827346801758 0.738605260848999023
0.710786640644073486 2.44447040557861328 0.474338918924331665
-1.14785647392272949 2.23999214172363281 0.649317145347595215
-1.65612673759460449 0.378068745136260986 0.567269802093505859
1.26050221920013428 -3.09817314147949219 0.667378783226013184
0.550049245357513428 -1.82982742786407471 0.460793882608413696
1.85268747806549072 -1.7629770040512085 0.950853228569030762
-1.752066969871521 -2.08642983436584473 0.676550745964050293
-1.48879468441009521 0.780695199966430664 0.462893515825271606
0.745384752750396729 2.47506856918334961 0.614200472831726074
0.17709745466709137 -1.90104556083679199 0.560891628265380859
1.52419352531433105 -0.992516458034515381 0.638859391212463379
-1.57717347145080566 3.4585106372833252 0.696148812770843506
0.730445921421051025 2.48333430290222168 0.506986558437347412
-0.0499165356159210205 3.60428333282470703 0.79329913854598999
0.754269897937774658 -2.28725337982177734 0.423822462558746338
-0.754770934581756592 0.844720602035522461 0.560664534568786621
0.0363815911114215851 2.53120660781860352 0.681656837463378906
-1.25376737117767334 -2.81375479698181152 0.718657076358795166
-1.46605730056762695 -1.83543157577514648 0.619152665138244629
0.996609330177307129 -0.795361161231994629 0.502949655055999756
-0.749347567558288574 0.836892485618591309 0.572177588939666748
1.93693983554840088 -3.51593756675720215 1.00185751914978027
-1.13597953319549561 0.89254605770111084 0.527503311634063721
0.00745216012001037598 1.95315670967102051 0.670614778995513916
-1.42573118209838867 -1.84154701232910156 0.700664520263671875
1.25634264945983887 3.01139068603515625 0.749357461929321289
0.93629753589630127 -0.23639969527721405 0.625475943088531494
-1.52090024948120117 1.33227205276489258 0.605069220066070557
-1.55547106266021729 2.86669826507568359 0.586286544799804688
0.157410562038421631 -1.24763298034667969 0.535839378833770752
0.684640407562255859 3.103302001953125 0.504587769508361816
-0.76431882381439209 0.814169228076934814 0.553338587284088135
-0.640533387660980225 -2.23809266090393066 0.62245410680770874
-0.0017849653959274292 2.41021990776062012 0.644732952117919922
0.534308254718780518 -4.16275644302368164 0.822379410266876221
-1.54248785972595215 2.86700153350830078 0.572769641876220703
1.52263522148132324 1.93206417560577393 0.748733878135681152
-1.54643726348876953 1.74410951137542725 0.60166400671005249
-0.912127137184143066 4.35691356658935547 0.808882474899291992
0.161193102598190308 -0.363360792398452759 0.552252233028411865
-1.70927333831787109 4.07066535949707031 0.861529231071472168
0.935618877410888672 -1.43778300285339355 0.31719633936882019
0.760716259479522705 -2.29807186126708984 0.432637631893157959
0.538612306118011475 -1.47837615013122559 0.56570899486541748
-1.50449705123901367 0.803741991519927979 0.454301595687866211
0.963076889514923096 1.03825223445892334 0.639132916927337646
-1.51849269866943359 2.35577559471130371 0.687502503395080566
0.987338542938232422 -4.08898591995239258 0.577422380447387695
-1.50234293937683105 2.34764790534973145 0.692245244979858398
1.82863402366638184 -2.48218488693237305 0.783495247364044189
1.40635120868682861 -4.86826658248901367 0.827861607074737549
-1.57478046417236328 -1.93741095066070557 0.66600489616394043
-2.28723740577697754 0.746582865715026855 0.754689872264862061
0.231638431549072266 -1.22136867046356201 0.610947549343109131
0.708776473999023438 2.45740532875061035 0.496208012104034424
1.63879632949829102 -1.80518531799316406 0.729022085666656494
0.151131883263587952 -1.60950291156768799 0.618756532669067383
1.28783786296844482 2.48093652725219727 0.702147483825683594
0.0358542948961257935 2.49117684364318848 0.66169440746307373
-2.18977260589599609 -1.63581442832946777 0.54875791072845459
0.621441841125488281 2.62612605094909668 0.555963099002838135
1.49692714214324951 -2.40577173233032227 0.641179203987121582
0.315592110157012939 -1.04443597793579102 0.660822212696075439
-0.275576174259185791 -2.23255681991577148 0.565849423408508301
-1.53341841697692871 1.41290760040283203 0.64858710765838623
0.728645741939544678 2.42581939697265625 0.479163050651550293
1.92030918598175049 -3.53582119941711426 1.02094101905822754
-1.5404207706451416 1.41358351707458496 0.642191648483276367
-1.47595000267028809 0.797419190406799316 0.447899430990219116
-2.24519896507263184 1.39770519733428955 0.843660712242126465
0.733313262462615967 2.48956894874572754 0.514482855796813965
-0.829124629497528076 2.8569180965423584 0.722379922866821289
0.72474139928817749 -2.81328153610229492 0.564253151416778564
0.969475746154785156 -1.59116828441619873 0.685424268245697021
1.74573171138763428 3.04526019096374512 0.569397151470184326
1.61875903606414795 -0.700703442096710205 0.635083198547363281
-1.58063793182373047 -1.94685649871826172 0.695899784564971924
-1.40649592876434326 -1.72245371341705322 0.60468745231628418
-1.19823932647705078 -0.499468892812728882 0.549604475498199463
0.527674019336700439 2.63723373413085938 0.534988462924957275
0.764209151268005371 -2.30395412445068359 0.434158384799957275
0.984937489032745361 -0.749344944953918457 0.478145509958267212
-0.505311071872711182 1.57880282402038574 0.587754189968109131
-0.749042272567749023 0.831853985786437988 0.576654911041259766
-1.48952102661132812 1.91005659103393555 0.664390921592712402
0.238986179232597351 -2.26068520545959473 0.570537805557250977
-1.40387201309204102 -1.41585564613342285 0.634029269218444824
0.51981884241104126 -1.28459882736206055 0.0526687726378440857
0.755996584892272949 -3.55303621292114258 0.545961439609527588
2.4139704704284668 -2.91071081161499023 0.696923971176147461
1.01946675777435303 -4.11492395401000977 0.649820566177368164
-1.19258224964141846 -1.86975014209747314 0.609985172748565674
-1.25181746482849121 -2.78773140907287598 0.667785823345184326
-0.0272821225225925446 3.59490323066711426 0.786012768745422363
0.904372751712799072 -1.26217269897460938 0.705930590629577637
-1.48541176319122314 0.796903431415557861 0.447122633457183838
0.60269695520401001 1.61246037483215332 0.549357295036315918
1.06893861293792725 -0.785892486572265625 0.589049816131591797
1.86410009860992432 -1.88397073745727539 0.844823241233825684
-1.52500009536743164 2.25194120407104492 0.661274373531341553
-1.50168693065643311 0.794236183166503906 0.481644362211227417
-1.39671027660369873 -1.70658278465270996 0.595107853412628174
1.47302722930908203 -2.36993527412414551 0.626938164234161377
1.51147758960723877 1.95084452629089355 0.746985495090484619
-1.48640918731689453 2.50480961799621582 0.756413698196411133
-2.40922999382019043 -1.75794446468353271 0.351585537195205688
0.100566118955612183 -1.17475557327270508 0.331144481897354126
-1.54142498970031738 2.86502480506896973 0.575065016746520996
-0.440613746643066406 3.04246377944946289 0.621263980865478516
0.0391212813556194305 2.50990939140319824 0.671816110610961914
-1.44590449333190918 0.758590996265411377 0.500758171081542969
-1.52636110782623291 2.26886820793151855 0.672523021697998047
-0.846726834774017334 1.35334897041320801 0.699078619480133057
1.92127573490142822 -3.36128044128417969 0.883730769157409668
-1.47267186641693115 0.172157809138298035 0.347142398357391357
0.69591975212097168 2.66390800476074219 0.507201075553894043
-1.68093013763427734 4.09539222717285156 0.882299065589904785
0.532268106937408447 -1.48276174068450928 0.575111627578735352
0.638686537742614746 -2.76415205001831055 0.576880097389221191
1.61511552333831787 -1.54146099090576172 0.728759050369262695
-1.54337728023529053 2.8719630241394043 0.568844437599182129
0.0295263882726430893 1.93545353412628174 0.683041989803314209
0.76066058874130249 -2.28914904594421387 0.417906373739242554
0.76036834716796875 -2.29652047157287598 0.419510304927825928
-2.2260429859161377 2.69998621940612793 0.793710589408874512
0.201354637742042542 -1.29574000835418701 0.629508852958679199
-1.11590147018432617 2.25263309478759766 0.608923733234405518
0.514941394329071045 2.64935469627380371 0.5195159912109375
0.717734396457672119 2.39750146865844727 0.524907946586608887
0.957398593425750732 1.04386448860168457 0.639094889163970947
-0.983806490898132324 2.11120176315307617 0.71535789966583252
0.0264301858842372894 3.08756637573242188 0.717641770839691162
-1.23634588718414307 -2.25530171394348145 0.501014590263366699
-2.28578615188598633 0.745622396469116211 0.761036217212677002
0.159147068858146667 -0.364901244640350342 0.550645589828491211
-0.932806909084320068 4.35918569564819336 0.822856485843658447
-0.751972496509552002 0.844257473945617676 0.566991746425628662
-1.48366022109985352 -1.87650001049041748 0.724785506725311279
-1.54179072380065918 2.34179449081420898 0.710246801376342773
-0.543361306190490723 2.50006103515625 0.677477836608886719
0.93550872802734375 -0.238791018724441528 0.620862483978271484
0.917512178421020508 1.98337638378143311 0.519212424755096436
0.704356551170349121 2.45408940315246582 0.479735642671585083
1.02907979488372803 -4.09246301651000977 0.636901140213012695
1.28153705596923828 2.48223400115966797 0.704595446586608887
0.769995331764221191 2.54252123832702637 0.625475287437438965
0.941273212432861328 -0.245230317115783691 0.61839216947555542
0.731015443801879883 -2.80888724327087402 0.527826905250549316
0.537368655204772949 -4.15967321395874023 0.825666964054107666
0.732882261276245117 2.34040474891662598 0.530664741992950439
-1.50341343879699707 0.799546658992767334 0.452464103698730469
0.86914592981338501 -1.81011056900024414 0.525165736675262451
-1.53959357738494873 1.40744173526763916 0.643818020820617676
0.23621736466884613 -2.2567451000213623 0.567582428455352783
-1.2945711612701416 -1.39677035808563232 0.634436309337615967
1.61390554904937744 -1.99437081813812256 0.711614489555358887
-2.23055863380432129 2.69799304008483887 0.795190870761871338
0.518362224102020264 1.05594146251678467 0.629731893539428711
0.72719264030456543 -2.80854034423828125 0.567983508110046387
0.946384787559509277 1.95543968677520752 0.544143378734588623
0.200418859720230103 -1.07107698917388916 0.506220698356628418
1.25957226753234863 3.00513243675231934 0.745771110057830811
1.51238977909088135 1.94677698612213135 0.746134638786315918
1.58363926410675049 -0.760581314563751221 0.637372434139251709
-0.836011350154876709 2.86100935935974121 0.719507455825805664
0.957176864147186279 1.04412007331848145 0.63896864652633667
0.635340034961700439 -0.527577340602874756 0.494022607803344727
-1.53888189792633057 1.4129936695098877 0.645013809204101562
0.156827241182327271 -0.356105208396911621 0.548191666603088379
-1.61546707153320312 2.87197709083557129 0.616729021072387695
-1.48429203033447266 0.78764951229095459 0.476307600736618042
-0.746932685375213623 0.835055947303771973 0.57079780101776123
1.29493188858032227 -2.1522209644317627 0.51190185546875
0.514311492443084717 -1.84020519256591797 0.559398770332336426
0.734465837478637695 -2.80211710929870605 0.549729764461517334
0.752617239952087402 -2.29628443717956543 0.432660281658172607
-1.25305497646331787 -2.81888747215270996 0.710431814193725586
-1.24394738674163818 -1.66992092132568359 0.557023108005523682
0.693121016025543213 2.4434809684753418 0.500795304775238037
0.682146251201629639 2.85413932800292969 0.551781296730041504
0.516435921192169189 -1.48624920845031738 0.578284502029418945
-0.825717806816101074 2.85969042778015137 0.72022402286529541
0.72581791877746582 -2.80281710624694824 0.560879230499267578
1.00162672996520996 -4.08739757537841797 0.559799313545227051
0.0431689471006393433 -1.02725529670715332 0.665383100509643555
0.340693652629852295 3.17931818962097168 0.564466536045074463
0.732810676097869873 2.48880696296691895 0.50760805606842041
-1.44008302688598633 -1.85808408260345459 0.606128036975860596
0.749265491962432861 3.07717037200927734 0.582877874374389648
0.64362788200378418 -3.44156599044799805 0.580748796463012695
-1.44695210456848145 -1.85992550849914551 0.649176597595214844
-1.52560055255889893 2.25823187828063965 0.669388651847839355
-0.913436949253082275 4.35563755035400391 0.817091882228851318
-1.50975573062896729 2.24335074424743652 0.670721232891082764
-1.50122427940368652 2.32715749740600586 0.689960360527038574
1.0204932689666748 -4.12011337280273438 0.687465429306030273
-1.72753119468688965 3.94857406616210938 0.742851197719573975
-0.904653489589691162 4.35208940505981445 0.81534874439239502
0.0355261862277984619 2.6206049919128418 0.696848213672637939
-0.497341841459274292 1.93282878398895264 0.610430061817169189
0.867303133010864258 -1.81520247459411621 0.584883332252502441
0.715072154998779297 2.33513426780700684 0.510435402393341064
-1.51218724250793457 2.83858203887939453 0.665620565414428711
0.977322280406951904 -0.724795222282409668 0.480046004056930542
-0.00659331679344177246 3.53039407730102539 0.784705996513366699
0.708935141563415527 2.42136526107788086 0.483200639486312866
1.9596555233001709 1.42436671257019043 0.990908622741699219
0.534290671348571777 -1.48689794540405273 0.579147875308990479
0.755205035209655762 -2.28983139991760254 0.421127259731292725
-1.4817659854888916 -1.45829117298126221 0.638457775115966797
0.713953316211700439 2.40784978866577148 0.6313437819480896
0.240095227956771851 -4.34098720550537109 0.63894951343536377
0.755206048488616943 -2.29984903335571289 0.434699177742004395
0.438246279954910278 -3.45966625213623047 0.593648850917816162
0.0294670667499303818 1.93599116802215576 0.683040738105773926
-1.709586501121521 -2.04702091217041016 0.717627167701721191
-1.47520792484283447 0.7996177077293396 0.448572099208831787
-1.52951395511627197 2.26479434967041016 0.669820964336395264
1.49418604373931885 -2.40573835372924805 0.643526017665863037
0.769290745258331299 -2.29760241508483887 0.426017194986343384
0.493638217449188232 2.90542697906494141 0.620855391025543213
1.14750027656555176 -1.34835708141326904 0.630982518196105957
-1.44352209568023682 -1.92319309711456299 0.699733316898345947
-1.39597809314727783 -1.69706940650939941 0.574403285980224609
1.51340365409851074 -1.14430451393127441 0.652692914009094238
0.531101524829864502 -1.48583650588989258 0.571515798568725586
-1.54435443878173828 2.86762309074401855 0.564071059226989746
0.986336469650268555 -0.752201080322265625 0.479114323854446411
1.60082685947418213 -0.686737120151519775 0.644079089164733887
0.0197759121656417847 1.92549407482147217 0.660419940948486328
1.87572729587554932 -2.31288599967956543 0.628823518753051758
0.23534807562828064 -2.25922441482543945 0.570050239562988281
1.50504803657531738 1.95497870445251465 0.743500709533691406
1.52573490142822266 -1.09687316417694092 0.651942551136016846
