ply
format ascii 1.0
element vertex 256
comment vertices
property float x
property float y
property float z
end_header
0.660375833511352539 -2.63693118095397949 0.501526951789855957
-1.29132747650146484 4.31057596206665039 0.73341834545135498
0.542078614234924316 2.37983322143554688 0.540609061717987061
-1.23348701000213623 1.35222434997558594 0.744067251682281494
-2.64623093605041504 -2.03561496734619141 0.304701358079910278
1.94263601303100586 -1.75875544548034668 0.811886310577392578
0.768505871295928955 2.48410344123840332 0.582366943359375
0.0939888060092926025 -1.96585631370544434 0.446229666471481323
-0.964730501174926758 2.6161799430847168 0.529093682765960693
-1.76618146896362305 1.59690356254577637 0.742089748382568359
1.76126551628112793 -3.35226821899414062 0.652354836463928223
-1.30737221240997314 -2.77497410774230957 0.683996021747589111
0.785134315490722656 -2.01672840118408203 0.374779015779495239
-1.60118913650512695 2.8768608570098877 0.5620841383934021
0.937031149864196777 -0.760246515274047852 0.448862463235855103
-1.43207418918609619 0.88321220874786377 0.434656888246536255
0.695752501487731934 2.42295932769775391 0.539714992046356201
0.929051518440246582 1.86417973041534424 0.584255695343017578
-1.13777494430541992 -1.0682607889175415 0.851832330226898193
-0.422737360000610352 2.11690855026245117 0.53564143180847168
0.578848659992218018 -0.567939877510070801 0.47601926326751709
1.13188278675079346 -2.13506889343261719 0.555189073085784912
-1.6415705680847168 2.2052614688873291 0.621446013450622559
-1.39646053314208984 -1.85718345642089844 0.486210435628890991
-1.84065663814544678 -0.868146061897277832 0.759831488132476807
-1.73356270790100098 -2.14237451553344727 0.556063413619995117
2.08890557289123535 -4.57073879241943359 0.822891294956207275
1.80659270286560059 -1.18497097492218018 0.594794392585754395
1.90308892726898193 1.58899354934692383 0.968054413795471191
0.0502209514379501343 2.54859566688537598 0.681505441665649414
-2.5128476619720459 1.04225373268127441 0.865204274654388428
0.986010313034057617 -4.13384675979614258 0.753638982772827148
0.983108282089233398 -1.60044634342193604 0.508508443832397461
0.53642350435256958 -1.42238187789916992 0.581927061080932617
0.730222582817077637 2.93273377418518066 0.51602548360824585
-1.73735630512237549 4.01405096054077148 0.715683817863464355
-0.427541017532348633 -1.65709090232849121 0.474750757217407227
-0.772572875022888184 0.798348844051361084 0.652316629886627197
-1.4996798038482666 -1.95461511611938477 0.570093750953674316
0.174377650022506714 -0.341886222362518311 0.553452551364898682
-0.848360180854797363 0.955058574676513672 0.411198288202285767
0.28401714563369751 -1.18353557586669922 0.356434375047683716
2.44190144538879395 -3.2068021297454834 1.01028037071228027
-1.55519223213195801 1.32786953449249268 0.63080894947052002
-2.20016932487487793 2.73900127410888672 0.797432363033294678
0.688749969005584717 -4.89490604400634766 0.889390707015991211
-1.61693716049194336 3.10709524154663086 0.642177581787109375
-2.26847267150878906 0.712219655513763428 0.727004587650299072
1.55021524429321289 2.99526524543762207 0.818852901458740234
-0.820171177387237549 2.8917088508605957 0.569100737571716309
0.770751953125 -2.13734197616577148 0.425317913293838501
1.50658535957336426 -1.53922188282012939 0.745325863361358643
-1.31856286525726318 -2.87044286727905273 0.568380653858184814
0.544593513011932373 2.80724406242370605 0.600428938865661621
1.23540627956390381 -0.77354276180267334 0.466248095035552979
-1.17400038242340088 2.64492225646972656 0.677323222160339355
1.25585949420928955 2.40691113471984863 0.718135356903076172
0.432681500911712646 -3.26134157180786133 0.620621562004089355
-0.884100794792175293 4.36219215393066406 0.872808575630187988
-1.66744387149810791 0.645769953727722168 0.45470273494720459
0.386815071105957031 -1.45373547077178955 0.276517719030380249
0.144226372241973877 -1.46205747127532959 0.518186509609222412
0.273559689521789551 3.13917875289916992 0.395189076662063599
0.959474682807922363 1.08373725414276123 0.692514479160308838
0.276982605457305908 -2.24512577056884766 0.543782472610473633
0.145200490951538086 3.11660265922546387 0.771841287612915039
0.635610580444335938 -2.42516922950744629 0.496629118919372559
-1.2424774169921875 -1.36570644378662109 0.696836471557617188
2.40555810928344727 -2.74655461311340332 0.756146669387817383
0.781534492969512939 -2.37039875984191895 0.449533164501190186
-1.63922035694122314 2.76784300804138184 0.551518559455871582
0.664120793342590332 2.46320247650146484 0.653726816177368164
-0.0357865318655967712 3.6000823974609375 0.557150125503540039
1.00445818901062012 -1.21389293670654297 0.566970109939575195
-0.273985207080841064 -1.82754719257354736 0.590491414070129395
-0.800996005535125732 2.79935073852539062 0.737991452217102051
0.902330338954925537 -1.86265349388122559 0.498693138360977173
0.741526603698730469 2.5791628360748291 0.548111557960510254
-1.37331473827362061 0.88944631814956665 0.454030275344848633
-1.22311067581176758 -1.22277557849884033 0.557982921600341797
-1.68021714687347412 0.837851643562316895 0.552841663360595703
0.0322735607624053955 1.93172371387481689 0.68657684326171875
-1.9935455322265625 -1.88411736488342285 0.48442763090133667
0.911933958530426025 1.20008015632629395 0.529802560806274414
0.463721543550491333 -1.70223355293273926 0.446208536624908447
0.458768129348754883 -1.5654597282409668 0.53301537036895752
0.364238321781158447 -0.892451882362365723 0.388863176107406616
-0.812799930572509766 0.891091823577880859 0.531633198261260986
-1.66958189010620117 1.61614990234375 0.48419526219367981
-0.24761161208152771 3.46681356430053711 0.698347747325897217
-1.4997488260269165 2.47165083885192871 0.642030119895935059
0.939863681793212891 -0.260719120502471924 0.666647911071777344
0.742507636547088623 -2.7970583438873291 0.600993454456329346
1.21168327331542969 -4.4719700813293457 0.668008208274841309
-1.54767286777496338 -1.96983706951141357 0.620631635189056396
-1.11905503273010254 -2.74066901206970215 0.758173167705535889
-1.45849716663360596 0.703371405601501465 0.440150976181030273
0.664123415946960449 2.50226807594299316 0.543910741806030273
0.940097987651824951 2.08846116065979004 0.555955290794372559
1.56791031360626221 -1.74763953685760498 0.638973057270050049
-0.972640931606292725 -0.873374700546264648 0.519916832447052002
0.4712943434715271 2.61003756523132324 0.55117487907409668
-1.0958247184753418 0.739360392093658447 0.516879141330718994
1.26960361003875732 2.30802440643310547 0.656357288360595703
1.51086044311523438 1.9200587272644043 0.662674129009246826
1.28360247611999512 -3.32053351402282715 0.542827725410461426
1.60344922542572021 -0.780771017074584961 0.681338965892791748
1.57289457321166992 -2.31793522834777832 0.641881048679351807
0.573911666870117188 2.74717378616333008 0.550098299980163574
-0.977237939834594727 1.73346793651580811 0.543165802955627441
-1.56086134910583496 2.98555850982666016 0.569327712059020996
-1.48376703262329102 0.696968019008636475 0.444342672824859619
0.795581817626953125 -2.28907418251037598 0.3824576735496521
-1.29664003849029541 -2.03967952728271484 0.66506648063659668
1.00503170490264893 -0.814323782920837402 0.421393334865570068
1.92882072925567627 -3.44602775573730469 0.921832859516143799
-1.45977795124053955 2.79215669631958008 0.53721773624420166
1.8244858980178833 -3.24638748168945312 0.813045382499694824
1.98250269889831543 -2.11461091041564941 0.529209136962890625
-1.8784019947052002 2.26748275756835938 0.592296004295349121
-2.75873088836669922 -1.65285634994506836 0.249691694974899292
0.530244827270507812 -2.11671638488769531 0.50182420015335083
0.309031665325164795 -1.37418484687805176 0.25727766752243042
0.861235857009887695 -0.961086630821228027 0.393323242664337158
-1.27839875221252441 -2.69234323501586914 0.514802277088165283
-2.17981410026550293 0.460568666458129883 0.780763924121856689
0.723670005798339844 2.47262382507324219 0.545052826404571533
-1.81682908535003662 2.27892422676086426 0.755200743675231934
-1.54760515689849854 2.73594117164611816 0.596298038959503174
-1.51651501655578613 2.83150053024291992 0.585412859916687012
-0.0365015044808387756 3.13906097412109375 0.750895380973815918
1.03063571453094482 -3.9492800235748291 0.746460914611816406
-1.675742506980896 4.09530878067016602 0.855936884880065918
0.283548235893249512 -1.97327244281768799 0.432695865631103516
-0.950145721435546875 4.00139474868774414 0.628753185272216797
-0.110111415386199951 3.59570527076721191 0.786103546619415283
1.4852139949798584 -1.16765642166137695 0.602982103824615479
0.573748886585235596 -3.49639320373535156 0.680413186550140381
0.759210586547851562 -1.010825514793396 0.417258471250534058
0.66738426685333252 -2.23926162719726562 0.486439645290374756
0.535118937492370605 -4.11138582229614258 0.777667403221130371
0.202985256910324097 -2.28458833694458008 0.545622348785400391
-1.05260252952575684 2.71787047386169434 0.616372823715209961
-1.27234029769897461 -1.47075462341308594 0.568343579769134521
0.151093333959579468 -0.369260936975479126 0.597366809844970703
1.51661944389343262 -3.69765186309814453 0.629432022571563721
0.930756509304046631 1.05551695823669434 0.648198366165161133
1.2844395637512207 3.03588294982910156 0.770381569862365723
0.380632400512695312 0.74178624153137207 0.517736554145812988
0.561141729354858398 -1.79112958908081055 0.33598741888999939
-1.25950074195861816 3.49958467483520508 0.545276761054992676
0.639373838901519775 2.46048116683959961 0.52693939208984375
-1.11816322803497314 0.0467330664396286011 0.507830679416656494
0.549994349479675293 -1.07867300510406494 0.604705214500427246
0.48708111047744751 -3.6049506664276123 0.608169078826904297
1.8259124755859375 1.55579590797424316 0.937640845775604248
-0.965880870819091797 -1.85814845561981201 0.640987396240234375
-1.51294565200805664 1.37145495414733887 0.633138537406921387
-1.54696428775787354 2.33583259582519531 0.64926522970199585
-2.24214553833007812 2.63169622421264648 0.732326209545135498
-1.27198350429534912 -2.91439199447631836 0.710009098052978516
1.09253871440887451 2.00698280334472656 0.567067146301269531
0.718698859214782715 2.49637031555175781 0.599693894386291504
-1.5573502779006958 3.41342926025390625 0.614976406097412109
1.63648080825805664 -1.47620630264282227 0.608435988426208496
0.759352684020996094 0.032472461462020874 0.497320324182510376
1.52652192115783691 1.70914745330810547 0.784746050834655762
-0.842797398567199707 2.92142963409423828 0.529145002365112305
-1.73491919040679932 -2.02015852928161621 0.574681222438812256
-1.33681344985961914 -2.33142375946044922 0.588655471801757812
0.0214641094207763672 2.41798257827758789 0.541296720504760742
-1.35889935493469238 0.684018194675445557 0.467465966939926147
0.515512287616729736 -1.51917862892150879 0.563091874122619629
-0.818262040615081787 2.88294005393981934 0.742042660713195801
-1.6031109094619751 2.83065509796142578 0.647666394710540771
-0.209135651588439941 3.45283174514770508 0.504183948040008545
1.50034832954406738 1.99230551719665527 0.70001530647277832
0.961519718170166016 -4.70530939102172852 0.788560748100280762
-0.778857111930847168 -2.10651254653930664 0.592518210411071777
1.26635026931762695 2.85135865211486816 0.695241272449493408
1.51606917381286621 -2.36396503448486328 0.603589236736297607
0.971838057041168213 -0.800338804721832275 0.503082752227783203
-0.981271922588348389 4.33452320098876953 0.833917737007141113
1.07372581958770752 -1.38087868690490723 0.457158535718917847
-1.47567224502563477 0.86107933521270752 0.455952376127243042
0.0152533948421478271 2.45939731597900391 0.716103434562683105
0.732395827770233154 -3.25282621383666992 0.667739272117614746
0.50991666316986084 -1.62624633312225342 0.468183338642120361
0.906135201454162598 2.17131257057189941 0.617043495178222656
0.972132384777069092 1.04235923290252686 0.686573147773742676
2.50945854187011719 -2.93619775772094727 0.886230289936065674
1.88033902645111084 -1.73801088333129883 0.98809361457824707
0.247430145740509033 -1.47286248207092285 0.426691889762878418
-1.38274967670440674 0.821127057075500488 0.455687344074249268
0.591131746768951416 2.59507036209106445 0.532743275165557861
-1.33226871490478516 2.68386363983154297 0.579451680183410645
0.671944499015808105 2.60230231285095215 0.657002091407775879
-0.813186883926391602 2.87760114669799805 0.735549449920654297
0.939228236675262451 -0.208657175302505493 0.617805004119873047
-1.18437278270721436 -0.815570056438446045 0.680339038372039795
-0.712615132331848145 0.841780960559844971 0.585850358009338379
-0.332951903343200684 2.73226094245910645 0.737671852111816406
0.727492928504943848 -2.80755138397216797 0.567422986030578613
-2.26791548728942871 2.7073664665222168 0.777437090873718262
0.139189451932907104 -0.408634722232818604 0.528953671455383301
-1.09922504425048828 0.928512215614318848 0.51368558406829834
1.00037813186645508 -0.734032154083251953 0.489697813987731934
-0.120854675769805908 3.28626108169555664 0.794311642646789551
0.431168049573898315 2.73055338859558105 0.552502751350402832
-1.02803397178649902 2.65879106521606445 0.652637362480163574
0.473386108875274658 -0.834861636161804199 0.46642187237739563
-1.53075301647186279 1.4351499080657959 0.616597831249237061
0.00836540758609771729 3.33279800415039062 0.752901554107666016
0.576342582702636719 -1.49281764030456543 0.487827330827713013
0.791028618812561035 -2.36262392997741699 0.450684547424316406
0.463080734014511108 -1.83926177024841309 0.386615335941314697
-1.54637110233306885 -1.88704490661621094 0.610458135604858398
1.38343203067779541 -1.68639588356018066 0.241330921649932861
-0.979452371597290039 0.994915187358856201 0.367398113012313843
-1.62746095657348633 3.79583287239074707 0.617497682571411133
0.455401092767715454 2.83417868614196777 0.513730347156524658
-1.61286914348602295 0.874532222747802734 0.505638837814331055
-2.54621315002441406 2.74831533432006836 0.66686856746673584
-2.29390454292297363 0.734466195106506348 0.727985501289367676
1.55457234382629395 -2.49905610084533691 0.589695096015930176
-0.756796538829803467 0.86919093132019043 0.57621610164642334
0.00558386743068695068 2.01031184196472168 0.705312132835388184
0.986408412456512451 -0.725412845611572266 0.469764739274978638
1.91921353340148926 -2.0514838695526123 0.535110235214233398
-1.19500875473022461 -1.58887410163879395 0.780266284942626953
-1.15093731880187988 -1.64588332176208496 0.618404626846313477
1.48358523845672607 1.94477999210357666 0.704943656921386719
-1.45367217063903809 2.59726142883300781 0.543198227882385254
1.46921849250793457 -2.68274855613708496 0.660066843032836914
0.0548227429389953613 1.97802162170410156 0.65098261833190918
-1.26688337326049805 2.12125015258789062 0.649577617645263672
-1.80407869815826416 1.21500813961029053 0.536777079105377197
-1.58253741264343262 2.71450209617614746 0.576872348785400391
-1.27570915222167969 -2.74011945724487305 0.776928544044494629
0.225152283906936646 -2.24821233749389648 0.54618382453918457
1.27164220809936523 -3.88846731185913086 0.66502845287322998
0.825229048728942871 -3.18720459938049316 0.634247362613677979
0.897603869438171387 -2.03422021865844727 0.454431772232055664
1.33107864856719971 2.51614022254943848 0.758665204048156738
-1.64064300060272217 -1.97322690486907959 0.560504674911499023
-1.51396334171295166 2.36935019493103027 0.724080204963684082
1.47796487808227539 -1.08613145351409912 0.67076420783996582
0.664424717426300049 2.68307685852050781 0.712091445922851562
0.477902442216873169 -4.217132568359375 0.815769851207733154
1.58462023735046387 -0.827549219131469727 0.624589085578918457
0.97446906566619873 -4.11451053619384766 0.695122599601745605
0.523310840129852295 -4.2217555046081543 0.792950749397277832
0.685811400413513184 -1.21663117408752441 0.371061563491821289
0.557022988796234131 2.63911342620849609 0.576010465621948242
0.781483113765716553 -2.31581020355224609 0.430783212184906006
1.03728187084197998 -0.774335503578186035 0.431872576475143433
