ply
format ascii 1.0
element vertex 256
comment vertices
property float x
property float y
property float z
end_header
1.05119585990905762 2.70337772369384766 -1.04919636249542236
-0.540345311164855957 4.92203092575073242 -0.363306611776351929
-1.75898408889770508 2.76618790626525879 -1.19060802459716797
-0.454392760992050171 1.98948454856872559 -1.24291312694549561
0.494036763906478882 4.61108112335205078 -0.624873340129852295
-1.66100466251373291 3.66092181205749512 -0.327225178480148315
-1.09589064121246338 3.95212888717651367 -1.16474342346191406
1.2678142786026001 4.11625337600708008 -0.16366991400718689
-0.00320489704608917236 2.76277995109558105 -1.20189285278320312
1.36850845813751221 3.63508152961730957 -1.17081403732299805
0.592841863632202148 2.16751337051391602 -1.20660686492919922
-0.192636981606483459 4.66508245468139648 -0.615511536598205566
-1.03210675716400146 2.4318852424621582 -1.11236119270324707
0.676656723022460938 4.1353917121887207 -0.618241965770721436
-1.06960856914520264 4.4044795036315918 -0.778813958168029785
0.739526212215423584 3.5523073673248291 -1.10457813739776611
0.247825607657432556 1.41476106643676758 -1.05402183532714844
-1.3848036527633667 3.54109477996826172 -1.12902987003326416
1.17198646068572998 4.10111522674560547 -0.955654323101043701
0.891559243202209473 2.91325831413269043 -1.20345354080200195
0.012141713872551918 2.68327784538269043 -1.15586566925048828
-1.83457458019256592 2.86021971702575684 -0.739040970802307129
-0.307707279920578003 3.90528154373168945 -1.07930290699005127
0.857748508453369141 4.54523086547851562 -0.726559102535247803
0.115575402975082397 2.79498052597045898 -1.18555212020874023
0.692351639270782471 2.22004842758178711 -1.09743881225585938
0.934036672115325928 3.8086235523223877 -0.796135544776916504
0.65053403377532959 4.72350120544433594 -0.467819184064865112
-1.03506672382354736 4.37427377700805664 -0.353155046701431274
1.11033546924591064 2.62325811386108398 -1.14519155025482178
0.252733349800109863 4.18837785720825195 -0.716492772102355957
-0.160434842109680176 2.2351677417755127 -1.2188720703125
-0.917023897171020508 4.45224523544311523 -0.941128730773925781
0.727791786193847656 3.3594810962677002 -1.23758614063262939
-0.303460270166397095 2.46225118637084961 -1.15614962577819824
-1.27013182640075684 4.77543735504150391 -0.504223227500915527
-1.63431930541992188 3.48028254508972168 -0.672394156455993652
0.0624383836984634399 3.03503298759460449 -1.19104957580566406
0.165572032332420349 1.5080115795135498 -1.16108143329620361
1.10345292091369629 2.64421963691711426 -1.12422740459442139
0.853139638900756836 4.82539749145507812 -0.0900192558765411377
-1.35119378566741943 4.07763099670410156 -0.992218255996704102
-0.45960843563079834 2.04857683181762695 -1.17373418807983398
-1.37122058868408203 3.74258947372436523 -1.0943138599395752
0.166675671935081482 5.02992534637451172 -0.200538218021392822
0.35380244255065918 3.00125598907470703 -1.1793363094329834
1.1280207633972168 4.33571624755859375 -0.884459078311920166
0.461973458528518677 4.4157257080078125 -0.746400356292724609
-1.05092954635620117 2.53243660926818848 -1.04349410533905029
-1.25137186050415039 4.10679340362548828 -0.335564941167831421
0.892410695552825928 4.29284286499023438 -0.841857433319091797
-1.37136638164520264 3.00800275802612305 -1.11919474601745605
0.862084865570068359 3.70476436614990234 -0.75367271900177002
-2.06182527542114258 2.76153230667114258 -0.529342234134674072
1.38846433162689209 3.11206793785095215 -1.1652216911315918
-0.34826195240020752 3.86508274078369141 -1.16995716094970703
0.581835031509399414 2.10228562355041504 -1.15437960624694824
1.22817683219909668 4.08673667907714844 -0.536502659320831299
0.365986466407775879 2.74070072174072266 -1.22779750823974609
0.179950833320617676 1.36794137954711914 -1.11948251724243164
-1.5071260929107666 3.2294609546661377 -1.05131113529205322
-0.569690287113189697 4.15631437301635742 -0.952697932720184326
-1.8121572732925415 4.18140268325805664 -0.544433712959289551
0.263519912958145142 2.68860101699829102 -1.18707883358001709
-0.201106071472167969 2.43897438049316406 -1.18464553356170654
0.0243350490927696228 2.57911229133605957 -1.18274068832397461
0.959872722625732422 3.97639226913452148 -0.976041913032531738
-0.0308216214179992676 2.82178926467895508 -1.19368767738342285
-0.249759718775749207 4.81328201293945312 -0.545123636722564697
0.69058680534362793 2.17851066589355469 -1.09795141220092773
0.971544861793518066 3.89370822906494141 -1.02507209777832031
-1.05411648750305176 2.38167071342468262 -1.05343759059906006
1.2313770055770874 2.62815690040588379 -1.14497053623199463
0.657137155532836914 3.45712924003601074 -1.11646389961242676
0.58970177173614502 2.52974748611450195 -1.16425108909606934
-0.826455295085906982 4.67687892913818359 -0.490855902433395386
-0.0872527584433555603 2.33807849884033203 -1.23746001720428467
-1.02555406093597412 4.52424812316894531 -0.566844701766967773
0.413622796535491943 4.16638040542602539 -0.834096312522888184
0.116637498140335083 4.42466115951538086 -0.610733270645141602
0.0540895834565162659 5.0093994140625 -0.404137790203094482
-0.26808437705039978 1.97000646591186523 -1.24708116054534912
-0.115508615970611572 3.3656158447265625 -1.12280559539794922
1.01833581924438477 4.122222900390625 -0.966996371746063232
0.51991349458694458 5.00383138656616211 -0.0721433162689208984
-1.47860097885131836 3.64080667495727539 -0.976724445819854736
1.1121973991394043 2.67098712921142578 -1.05526256561279297
0.0682170987129211426 2.97138190269470215 -1.11794579029083252
-1.23882460594177246 3.3285067081451416 -1.09303045272827148
-0.214806139469146729 4.7490692138671875 -0.829277098178863525
1.27834582328796387 3.89285564422607422 -0.385389268398284912
-0.0826230794191360474 2.6891016960144043 -1.17287063598632812
0.624015748500823975 4.59084796905517578 -0.594994485378265381
-0.825027644634246826 4.34353542327880859 -0.579320073127746582
-1.10863828659057617 4.55864334106445312 -0.7613028883934021
0.397592335939407349 4.55368757247924805 -0.680394411087036133
-1.08168530464172363 2.47705411911010742 -1.13482975959777832
1.37860572338104248 4.16395378112792969 -0.920968413352966309
0.713655233383178711 3.68788480758666992 -1.08026504516601562
-0.339140951633453369 2.03657150268554688 -1.23454141616821289
-0.693344473838806152 2.06046605110168457 -1.15681838989257812
0.263324350118637085 4.49373483657836914 -0.811224102973937988
0.445297420024871826 4.2081298828125 -0.640083134174346924
-1.46270334720611572 3.5109405517578125 -1.17686283588409424
-1.1146160364151001 4.14180707931518555 -0.579085171222686768
0.597774147987365723 3.45961380004882812 -1.12230026721954346
-0.309529602527618408 2.22918844223022461 -1.18121504783630371
0.851971983909606934 2.15662670135498047 -1.15814602375030518
-1.07881462574005127 4.07479619979858398 -0.934076189994812012
0.159322187304496765 4.18537712097167969 -0.68323671817779541
-1.14141297340393066 3.84055614471435547 -1.09164047241210938
0.732576966285705566 3.57093548774719238 -1.12245357036590576
-0.192654639482498169 1.83951246738433838 -1.23866748809814453
1.31963396072387695 4.04134941101074219 -1.02678108215332031
0.233092263340950012 1.51645469665527344 -1.11051034927368164
1.06302988529205322 2.59322643280029297 -1.0961003303527832
1.10202610492706299 2.67964601516723633 -1.07061159610748291
-1.01256155967712402 4.40488815307617188 -0.414163649082183838
1.14798641204833984 4.16522836685180664 -0.865821123123168945
0.227612152695655823 1.38895595073699951 -1.11905193328857422
0.629400491714477539 4.69424629211425781 -0.557927370071411133
0.968297302722930908 4.2318720817565918 -1.0381624698638916
-1.06100404262542725 4.16461706161499023 -0.864379286766052246
-1.37846159934997559 3.81241869926452637 -0.450064510107040405
-0.292704015970230103 3.89864397048950195 -1.12372767925262451
-0.018825724720954895 2.43935418128967285 -1.1899864673614502
0.682301878929138184 4.79439067840576172 -0.575923264026641846
-0.125591784715652466 2.72986555099487305 -1.15553176403045654
1.50537633895874023 4.13573169708251953 -0.854919612407684326
0.927757918834686279 4.31925344467163086 -0.77872544527053833
0.900121629238128662 3.77880024909973145 -0.769593179225921631
0.651159286499023438 2.21268677711486816 -1.15209317207336426
-1.10129129886627197 2.42820310592651367 -1.14276671409606934
-0.442945897579193115 2.35564947128295898 -1.11692500114440918
-1.11487317085266113 4.34004068374633789 -0.89304041862487793
0.676653623580932617 2.22605276107788086 -1.10586714744567871
0.785001695156097412 3.48646378517150879 -1.10941588878631592
-1.2948462963104248 3.62891197204589844 -0.962279081344604492
1.10840797424316406 3.90642881393432617 -0.557198286056518555
-0.322370231151580811 4.72781801223754883 -0.697192251682281494
0.130349189043045044 2.73703169822692871 -1.1960904598236084
1.3206709623336792 3.03142809867858887 -1.16014862060546875
-0.0199594944715499878 4.31421422958374023 -0.544826388359069824
-0.357162266969680786 3.92809343338012695 -1.08711802959442139
0.782534956932067871 3.88071274757385254 -0.89477163553237915
1.10631632804870605 3.56839394569396973 -0.447358548641204834
-1.21142256259918213 2.96950912475585938 -1.22322893142700195
0.456370681524276733 2.28235745429992676 -1.16473293304443359
-0.423012733459472656 2.04259657859802246 -1.24624443054199219
-0.166222810745239258 2.33447885513305664 -1.15823268890380859
0.698415875434875488 3.9472053050994873 -0.679360806941986084
1.1824030876159668 3.26207947731018066 -1.16691052913665771
0.604490697383880615 2.50289511680603027 -1.16666924953460693
1.14657163619995117 2.65915608406066895 -1.046722412109375
-0.874246180057525635 4.3614654541015625 -0.810275733470916748
0.0303805209696292877 2.89319372177124023 -1.17844069004058838
-2.06077742576599121 2.7519690990447998 -0.63105010986328125
-1.84419453144073486 3.17669248580932617 -0.530757129192352295
0.13225865364074707 2.84258151054382324 -1.18636512756347656
-1.69862520694732666 2.72503972053527832 -0.963793754577636719
-1.2730485200881958 3.33947587013244629 -1.13321053981781006
0.703195095062255859 2.24630141258239746 -1.09077620506286621
1.36697375774383545 4.23217296600341797 -0.264370203018188477
0.181877419352531433 1.3837287425994873 -1.13343453407287598
0.692935168743133545 2.22916197776794434 -1.11539649963378906
0.1437549889087677 2.49975824356079102 -1.17426133155822754
0.223712220788002014 1.43229508399963379 -1.10321605205535889
0.0739481598138809204 4.30552148818969727 -0.880504965782165527
-1.67979621887207031 3.49939799308776855 -0.653070569038391113
0.0956146791577339172 2.78095149993896484 -1.18459272384643555
-1.53968548774719238 3.81843376159667969 -0.761022269725799561
0.533672749996185303 4.77394008636474609 -0.517884135246276855
-0.0961016863584518433 2.0265042781829834 -1.21007359027862549
0.72151869535446167 4.35536336898803711 -0.35329204797744751
0.163639917969703674 4.25724411010742188 -0.64690089225769043
0.423542886972427368 4.55791473388671875 -0.606867492198944092
0.0120052285492420197 2.7332148551940918 -1.19609498977661133
1.04633915424346924 2.63033056259155273 -1.0901559591293335
0.553507149219512939 4.68873071670532227 -0.49374958872795105
0.00535550713539123535 2.74404525756835938 -1.17760753631591797
0.853951752185821533 3.78496265411376953 -0.913175880908966064
-0.785313725471496582 4.78349733352661133 -0.214220672845840454
-0.962737917900085449 4.69753789901733398 -0.537558078765869141
0.893644928932189941 2.43027949333190918 -1.14703571796417236
0.0192230045795440674 2.69476175308227539 -1.15171349048614502
-0.603548705577850342 4.74911069869995117 -0.475170552730560303
0.165818601846694946 1.56361448764801025 -1.1241612434387207
-0.818237960338592529 4.11659383773803711 -0.994928240776062012
0.157325029373168945 3.1012263298034668 -1.14718234539031982
0.137040793895721436 2.73189616203308105 -1.17814540863037109
0.173870131373405457 4.75408315658569336 -0.350994408130645752
-0.178654775023460388 4.81501197814941406 -0.532642185688018799
0.486954212188720703 4.59421539306640625 -0.607458949089050293
-0.0323092043399810791 2.8988792896270752 -1.17044270038604736
0.47708284854888916 4.55660390853881836 -0.65194237232208252
1.14294564723968506 2.64200925827026367 -1.06199216842651367
1.24292922019958496 3.8832089900970459 -0.618687927722930908
0.118385434150695801 2.60916256904602051 -1.18964517116546631
0.667924761772155762 2.18198728561401367 -1.11221587657928467
-0.256924480199813843 2.37181830406188965 -1.14121854305267334
0.903458356857299805 4.14152812957763672 -0.867183446884155273
-0.590918123722076416 4.38634204864501953 -0.595328092575073242
-0.818691611289978027 4.53566598892211914 -0.36860579252243042
0.375475108623504639 3.1393129825592041 -1.08079683780670166
-1.05122900009155273 2.47073864936828613 -1.0823519229888916
-0.108087688684463501 2.72028064727783203 -1.15159070491790771
-1.22796893119812012 5.05352878570556641 -0.669386088848114014
0.0227818489074707031 2.6572108268737793 -1.1977386474609375
-0.860905945301055908 4.23457241058349609 -1.13216376304626465
0.101856708526611328 4.45633459091186523 -0.504587769508361816
-1.19373726844787598 3.1475827693939209 -0.96965944766998291
-1.4017338752746582 3.57778739929199219 -1.08363866806030273
1.03556537628173828 3.99587225914001465 -0.943641185760498047
-0.639297127723693848 4.62588882446289062 -0.85795360803604126
1.03628873825073242 4.26988315582275391 -0.916929721832275391
-1.25526726245880127 4.33052444458007812 -0.544642806053161621
0.305633246898651123 4.08638477325439453 -0.823342084884643555
-0.378391623497009277 2.18731904029846191 -1.13849663734436035
-1.57472085952758789 3.73467588424682617 -1.01292526721954346
0.896030187606811523 4.12152099609375 -1.00504457950592041
-1.08123540878295898 4.68609428405761719 -0.485085934400558472
-0.287119567394256592 3.87602949142456055 -1.11016249656677246
0.324898242950439453 4.16878461837768555 -0.787649035453796387
-0.307754099369049072 2.18427443504333496 -1.22410225868225098
-0.911287307739257812 4.48258447647094727 -0.570603847503662109
1.24606287479400635 3.84088659286499023 -0.406270772218704224
-1.17926740646362305 4.32786941528320312 -0.355185717344284058
0.745423436164855957 3.55014300346374512 -1.13297009468078613
0.995172977447509766 2.73809957504272461 -1.13330602645874023
-0.303257405757904053 1.96453213691711426 -1.2084193229675293
-0.432123154401779175 2.06587052345275879 -1.22673428058624268
-1.25959587097167969 4.60541820526123047 -0.587519228458404541
-1.08510053157806396 3.67166376113891602 -0.867737174034118652
-1.19095134735107422 4.22975444793701172 -0.826365470886230469
0.0643786191940307617 2.83170986175537109 -1.17744541168212891
0.871353328227996826 4.09704685211181641 -0.995879411697387695
-1.20756661891937256 3.76604604721069336 -0.627762377262115479
1.05192112922668457 2.61875271797180176 -1.10994243621826172
-1.32361245155334473 4.05185413360595703 -1.05567336082458496
0.913373112678527832 4.13630151748657227 -1.01815128326416016
-1.26038920879364014 4.2638554573059082 -0.908873021602630615
0.494145393371582031 4.55435037612915039 -0.666576921939849854
0.42149004340171814 4.5776982307434082 -0.646414458751678467
-0.213488519191741943 2.28464889526367188 -1.21957790851593018
0.0437315851449966431 2.3640139102935791 -1.21427226066589355
0.539106369018554688 4.65766382217407227 -0.539105534553527832
-0.342818945646286011 2.02734518051147461 -1.21589231491088867
0.730994164943695068 4.68184423446655273 -0.77043837308883667
1.24721050262451172 4.44084835052490234 -0.912948846817016602
0.619295120239257812 4.73548555374145508 -0.438566386699676514
0.836714386940002441 4.76677370071411133 -0.499263972043991089
-1.43522346019744873 3.71763730049133301 -0.365266799926757812
-0.00491282343864440918 4.83868646621704102 -0.522258162498474121
-0.51087266206741333 2.01800656318664551 -1.14600908756256104
-0.912333130836486816 4.82843875885009766 -0.692388534545898438
0.94776308536529541 4.30206441879272461 -0.847472071647644043
