ply
format ascii 1.0
element vertex 108
comment vertices
property float x
property float y
property float z
end_header
1.07130634784698486 2.66704678535461426 -1.05650424957275391
-0.482720315456390381 1.90539658069610596 -1.20903968811035156
0.0247703958302736282 2.72988462448120117 -1.17389500141143799
0.682722628116607666 2.21574831008911133 -1.15147495269775391
-1.07323956489562988 2.46233534812927246 -1.10784804821014404
0.77783966064453125 3.51734375953674316 -1.1146697998046875
0.218798905611038208 1.36306357383728027 -1.09394097328186035
0.839345633983612061 2.97661495208740234 -1.14760458469390869
0.0293759498745203018 2.65248608589172363 -1.14799153804779053
-0.284170031547546387 3.90865778923034668 -1.06590735912322998
0.0804870426654815674 2.75035262107849121 -1.16977560520172119
0.673086404800415039 2.17844557762145996 -1.12337374687194824
1.10070610046386719 2.65351676940917969 -1.09628057479858398
-0.137845844030380249 2.22117710113525391 -1.18712329864501953
0.774999439716339111 3.55982708930969238 -1.12237823009490967
-0.299566566944122314 2.44114995002746582 -1.17156636714935303
0.11967112123966217 2.98904585838317871 -1.1797715425491333
0.175370380282402039 1.39724993705749512 -1.12805652618408203
1.09826481342315674 2.64833998680114746 -1.09266459941864014
-0.483633249998092651 1.95547139644622803 -1.17726278305053711
0.314172059297561646 3.01774072647094727 -1.16499805450439453
-1.07307815551757812 2.46844100952148438 -1.06709635257720947
-0.296406149864196777 3.90405774116516113 -1.09880650043487549
0.674270033836364746 2.19227910041809082 -1.1343085765838623
0.305808842182159424 2.71156644821166992 -1.18010926246643066
0.20217035710811615 1.35225999355316162 -1.13242542743682861
0.166240260004997253 2.67078757286071777 -1.1787031888961792
-0.144324004650115967 2.39696931838989258 -1.17626368999481201
0.0393397919833660126 2.55954647064208984 -1.15170443058013916
0.0185076221823692322 2.78449296951293945 -1.17445027828216553
0.672232925891876221 2.16586136817932129 -1.12659943103790283
-1.08161413669586182 2.45715618133544922 -1.08131003379821777
1.14248538017272949 2.6320803165435791 -1.08679139614105225
0.794928014278411865 3.54369688034057617 -1.11451077461242676
0.702570199966430664 2.39032483100891113 -1.11887872219085693
-0.0718395188450813293 2.33811163902282715 -1.19460129737854004
-0.3220977783203125 1.95473837852478027 -1.20751821994781494
-0.2289009690284729 3.33902597427368164 -1.16236686706542969
1.09791600704193115 2.64723753929138184 -1.06640458106994629
0.11587948352098465 2.90120482444763184 -1.15070867538452148
-0.022591758519411087 2.6350853443145752 -1.15573906898498535
-1.08901858329772949 2.4612419605255127 -1.11796486377716064
0.778090357780456543 3.54295921325683594 -1.10698223114013672
-0.380359530448913574 1.9780280590057373 -1.20230412483215332
-0.967789173126220703 1.94204497337341309 -1.15660250186920166
0.78001713752746582 3.52352070808410645 -1.1240084171295166
-0.28313678503036499 2.17444968223571777 -1.18310976028442383
0.700856924057006836 2.16657710075378418 -1.13424336910247803
0.774206042289733887 3.5188755989074707 -1.11282193660736084
-0.260998308658599854 1.78745293617248535 -1.20864772796630859
0.209397852420806885 1.40832877159118652 -1.10304200649261475
1.09475433826446533 2.66585874557495117 -1.0789334774017334
1.09479689598083496 2.65092372894287109 -1.07063090801239014
0.211105510592460632 1.35084545612335205 -1.13218128681182861
-0.281263679265975952 3.90196061134338379 -1.0874706506729126
-0.000883501023054122925 2.43705177307128906 -1.15629792213439941
-0.121060833334922791 2.63843512535095215 -1.15783131122589111
0.67175447940826416 2.19092607498168945 -1.1391674280166626
-1.09042870998382568 2.4588930606842041 -1.12614786624908447
-0.520094513893127441 2.35390114784240723 -1.14326059818267822
0.671649813652038574 2.17730188369750977 -1.12260913848876953
0.760764539241790771 3.54347610473632812 -1.10303878784179688
0.0746377259492874146 2.69919157028198242 -1.17295253276824951
-0.297317802906036377 3.91488313674926758 -1.06166982650756836
0.646384954452514648 2.21990013122558594 -1.12965703010559082
-0.436537683010101318 1.96965515613555908 -1.21541821956634521
-0.129006236791610718 2.31455755233764648 -1.16633951663970947
0.678488373756408691 2.30504846572875977 -1.11681103706359863
1.11172294616699219 2.63737130165100098 -1.0659637451171875
0.0698770880699157715 2.84181594848632812 -1.16779398918151855
0.143193572759628296 2.79523992538452148 -1.17749333381652832
0.67908012866973877 2.17743468284606934 -1.1124037504196167
0.200626641511917114 1.35817825794219971 -1.13791203498840332
0.674071788787841797 2.18161821365356445 -1.12407171726226807
0.115347713232040405 2.49366879463195801 -1.15069425106048584
0.206037983298301697 1.36934065818786621 -1.11657536029815674
0.0680911540985107422 2.74061107635498047 -1.16834795475006104
-0.135581374168395996 2.00276660919189453 -1.18259143829345703
0.0366788841784000397 2.6861417293548584 -1.16459095478057861
1.0895460844039917 2.66643047332763672 -1.07537472248077393
0.0241557992994785309 2.70731902122497559 -1.15946340560913086
0.785454630851745605 2.32139039039611816 -1.13518047332763672
0.033570803701877594 2.66035795211791992 -1.14723873138427734
0.174145832657814026 1.43717384338378906 -1.1048508882522583
0.199458792805671692 3.05429840087890625 -1.16534698009490967
0.0756369680166244507 2.69630217552185059 -1.16881704330444336
0.0293546803295612335 2.84385800361633301 -1.17070913314819336
1.11140310764312744 2.63791036605834961 -1.07219648361206055
0.0865972042083740234 2.62168478965759277 -1.16768622398376465
0.668398141860961914 2.17190217971801758 -1.13184452056884766
-0.207779571413993835 2.33342456817626953 -1.1559070348739624
0.402448266744613647 3.16372036933898926 -1.09688889980316162
-1.08015692234039307 2.46108913421630859 -1.09054052829742432
-0.0349097251892089844 2.68282580375671387 -1.14241671562194824
0.0415302366018295288 2.62779140472412109 -1.16263854503631592
-0.374009996652603149 2.10524225234985352 -1.16747236251831055
-0.281475931406021118 3.90405511856079102 -1.08389830589294434
-0.297130554914474487 2.13742256164550781 -1.19791102409362793
0.772864282131195068 3.51972651481628418 -1.11283516883850098
1.08965587615966797 2.66265249252319336 -1.08039236068725586
-0.356065124273300171 1.92014849185943604 -1.18831026554107666
-0.445664823055267334 1.98379373550415039 -1.20545816421508789
0.0763803943991661072 2.77770853042602539 -1.16340124607086182
1.09186530113220215 2.66912484169006348 -1.08330953121185303
-0.175783336162567139 2.2606499195098877 -1.18874609470367432
0.0284104980528354645 2.38777065277099609 -1.17740917205810547
-0.386690348386764526 1.96595191955566406 -1.19003713130950928
-0.553323447704315186 1.90787374973297119 -1.16184794902801514
