ply
format ascii 1.0
element vertex 256
comment vertices
property float x
property float y
property float z
end_header
1.07130634784698486 2.66704678535461426 -1.05650424957275391
-0.433666825294494629 4.61351776123046875 -0.349199652671813965
-2.00936532020568848 2.72013497352600098 -1.18679118156433105
-0.482720315456390381 1.90539658069610596 -1.20903968811035156
0.373465359210968018 4.14372682571411133 -0.790681898593902588
-1.63062143325805664 2.98200321197509766 -0.412127107381820679
-0.996213197708129883 3.7150266170501709 -1.19519650936126709
1.4232325553894043 3.9091956615447998 -0.0119468271732330322
0.0247703958302736282 2.72988462448120117 -1.17389500141143799
1.41673123836517334 3.64886856079101562 -1.13604748249053955
0.682722628116607666 2.21574831008911133 -1.15147495269775391
-0.256257295608520508 3.05057740211486816 -1.03214430809020996
-1.07323956489562988 2.46233534812927246 -1.10784804821014404
1.24034833908081055 2.72590780258178711 -1.14998126029968262
-1.09805846214294434 4.12297248840332031 -0.911064863204956055
0.77783966064453125 3.51734375953674316 -1.1146697998046875
0.218798905611038208 1.36306357383728027 -1.09394097328186035
-1.77069807052612305 2.85810279846191406 -1.20818519592285156
1.08490467071533203 4.08553647994995117 -1.01755285263061523
0.839345633983612061 2.97661495208740234 -1.14760458469390869
0.0293759498745203018 2.65248608589172363 -1.14799153804779053
-2.13942313194274902 2.15504837036132812 -0.998392999172210693
-0.284170031547546387 3.90865778923034668 -1.06590735912322998
1.18045473098754883 4.34075736999511719 -0.844222545623779297
0.0804870426654815674 2.75035262107849121 -1.16977560520172119
0.673086404800415039 2.17844557762145996 -1.12337374687194824
1.25923418998718262 2.8166053295135498 -1.14807379245758057
0.595468282699584961 4.46759366989135742 -0.457418203353881836
-1.05614626407623291 3.54293084144592285 -0.530394911766052246
1.10070610046386719 2.65351676940917969 -1.09628057479858398
0.537650048732757568 2.09680628776550293 -1.23540604114532471
-0.137845844030380249 2.22117710113525391 -1.18712329864501953
-1.05567550659179688 4.24522066116333008 -1.08674156665802002
0.774999439716339111 3.55982708930969238 -1.12237823009490967
-0.299566566944122314 2.44114995002746582 -1.17156636714935303
-2.38696694374084473 3.69139766693115234 -1.01698970794677734
-1.71033859252929688 1.66703963279724121 -1.06303584575653076
0.11967112123966217 2.98904585838317871 -1.1797715425491333
0.175370380282402039 1.39724993705749512 -1.12805652618408203
1.09826481342315674 2.64833998680114746 -1.09266459941864014
1.17999005317687988 4.78873348236083984 -0.0658167824149131775
-2.02287745475769043 3.66264772415161133 -1.14708471298217773
-0.483633249998092651 1.95547139644622803 -1.17726278305053711
-1.59484076499938965 3.43698644638061523 -1.16389060020446777
0.424661874771118164 4.65902948379516602 0.0622815787792205811
0.314172059297561646 3.01774072647094727 -1.16499805450439453
1.23854446411132812 4.25153541564941406 -1.01932382583618164
0.880699396133422852 3.25395846366882324 -1.11003351211547852
-1.07307815551757812 2.46844100952148438 -1.06709635257720947
-1.30560517311096191 3.46681475639343262 -0.361562728881835938
0.910391032695770264 4.14690446853637695 -1.00495028495788574
-1.4712759256362915 2.27280330657958984 -1.24355447292327881
0.7941245436668396 2.61480879783630371 -1.09383213520050049
-2.8910365104675293 0.647151470184326172 -1.02304196357727051
1.50895953178405762 3.05863165855407715 -1.11979579925537109
-0.296406149864196777 3.90405774116516113 -1.09880650043487549
0.674270033836364746 2.19227910041809082 -1.1343085765838623
1.80113101005554199 3.36616611480712891 -0.823567390441894531
0.305808842182159424 2.71156644821166992 -1.18010926246643066
0.20217035710811615 1.35225999355316162 -1.13242542743682861
-1.81361746788024902 2.80770444869995117 -1.14142394065856934
0.241799712181091309 2.98626947402954102 -1.147133469581604
-3.42479944229125977 3.22075748443603516 -1.01463460922241211
0.166240260004997253 2.67078757286071777 -1.1787031888961792
-0.144324004650115967 2.39696931838989258 -1.17626368999481201
0.0393397919833660126 2.55954647064208984 -1.15170443058013916
0.895470380783081055 3.84938430786132812 -1.07310724258422852
0.0185076221823692322 2.78449296951293945 -1.17445027828216553
-0.34983864426612854 4.24250078201293945 -0.737124025821685791
0.672232925891876221 2.16586136817932129 -1.12659943103790283
0.820176839828491211 3.47420120239257812 -1.10510110855102539
-1.08161413669586182 2.45715618133544922 -1.08131003379821777
1.14248538017272949 2.6320803165435791 -1.08679139614105225
0.794928014278411865 3.54369688034057617 -1.11451077461242676
0.702570199966430664 2.39032483100891113 -1.11887872219085693
-0.633933186531066895 3.95890569686889648 -0.642134010791778564
-0.0718395188450813293 2.33811163902282715 -1.19460129737854004
-0.942844092845916748 3.48598361015319824 -0.777077555656433105
1.03065061569213867 1.46821808815002441 -1.34318280220031738
-0.0578443259000778198 3.22515773773193359 -1.05778670310974121
0.400201410055160522 4.70162010192871094 -0.221075654029846191
-0.3220977783203125 1.95473837852478027 -1.20751821994781494
-0.2289009690284729 3.33902597427368164 -1.16236686706542969
0.975929081439971924 4.03354263305664062 -1.07600581645965576
0.731526851654052734 4.99028301239013672 0.0143649950623512268
-1.86205005645751953 3.09906673431396484 -1.11550331115722656
1.09791600704193115 2.64723753929138184 -1.06640458106994629
0.11587948352098465 2.90120482444763184 -1.15070867538452148
-1.25745165348052979 2.76602745056152344 -1.21157729625701904
-0.102055683732032776 3.82499003410339355 -1.10475802421569824
2.03703856468200684 2.72035646438598633 -0.643463134765625
-0.022591758519411087 2.6350853443145752 -1.15573906898498535
0.852315604686737061 4.26933526992797852 -0.8164406418800354
-0.744311273097991943 2.54668664932250977 -1.01093101501464844
-1.41499614715576172 3.8473818302154541 -1.0352243185043335
0.394902318716049194 3.81414699554443359 -0.917353451251983643
-1.08901858329772949 2.4612419605255127 -1.11796486377716064
1.61044800281524658 4.05380010604858398 -0.99206852912902832
0.778090357780456543 3.54295921325683594 -1.10698223114013672
-0.380359530448913574 1.9780280590057373 -1.20230412483215332
-0.967789173126220703 1.94204497337341309 -1.15660250186920166
0.00119495391845703125 3.6513829231262207 -1.05954813957214355
1.00826430320739746 2.31364226341247559 -1.17649388313293457
-1.95088756084442139 2.79299354553222656 -1.24971687793731689
-1.19668471813201904 3.41096901893615723 -0.678113758563995361
0.78001713752746582 3.52352070808410645 -1.1240084171295166
-0.28313678503036499 2.17444968223571777 -1.18310976028442383
0.700856924057006836 2.16657710075378418 -1.13424336910247803
-1.07337379455566406 3.82053661346435547 -1.07870078086853027
-0.0734437704086303711 2.09055614471435547 -1.24533629417419434
-1.04367303848266602 3.68194222450256348 -1.15295267105102539
0.774206042289733887 3.5188755989074707 -1.11282193660736084
-0.260998308658599854 1.78745293617248535 -1.20864772796630859
1.6370079517364502 3.78407049179077148 -1.06618094444274902
0.209397852420806885 1.40832877159118652 -1.10304200649261475
1.09475433826446533 2.66585874557495117 -1.0789334774017334
1.09479689598083496 2.65092372894287109 -1.07063090801239014
-1.05960464477539062 3.58923768997192383 -0.590898811817169189
1.08459198474884033 4.12821054458618164 -1.01093816757202148
0.211105510592460632 1.35084545612335205 -1.13218128681182861
0.926811337471008301 4.57023000717163086 -0.724989771842956543
0.958510458469390869 4.08270740509033203 -1.11460375785827637
-1.19736969470977783 3.43887662887573242 -1.04969251155853271
-1.10217010974884033 2.95897889137268066 -0.623674631118774414
-0.281263679265975952 3.90196061134338379 -1.0874706506729126
-0.000883501023054122925 2.43705177307128906 -1.15629792213439941
0.834093689918518066 4.82037734985351562 -0.646051645278930664
-0.121060833334922791 2.63843512535095215 -1.15783131122589111
2.03762412071228027 3.86167311668395996 -0.961157441139221191
0.963191986083984375 4.1805729866027832 -0.966595590114593506
1.18769359588623047 2.60128927230834961 -1.15460681915283203
0.67175447940826416 2.19092607498168945 -1.1391674280166626
-1.09042870998382568 2.4588930606842041 -1.12614786624908447
-0.520094513893127441 2.35390114784240723 -1.14326059818267822
-1.44476652145385742 4.27233123779296875 -0.975525379180908203
0.671649813652038574 2.17730188369750977 -1.12260913848876953
0.760764539241790771 3.54347610473632812 -1.10303878784179688
-1.33445549011230469 2.7573857307434082 -1.17264032363891602
2.01461315155029297 2.31842136383056641 -1.0834205150604248
-0.500615715980529785 3.9803314208984375 -0.99139094352722168
0.0746377259492874146 2.69919157028198242 -1.17295253276824951
1.39918076992034912 2.95154404640197754 -1.10605263710021973
0.0588375777006149292 2.12416553497314453 -1.24437308311462402
-0.297317802906036377 3.91488313674926758 -1.06166982650756836
0.577888190746307373 3.60619521141052246 -1.04276108741760254
1.77325153350830078 0.272870540618896484 -1.15321445465087891
-0.67003166675567627 1.58519113063812256 -1.39788806438446045
0.646384954452514648 2.21990013122558594 -1.12965703010559082
-0.436537683010101318 1.96965515613555908 -1.21541821956634521
-0.129006236791610718 2.31455755233764648 -1.16633951663970947
0.547945976257324219 2.84909534454345703 -1.10411334037780762
1.10000491142272949 3.30065727233886719 -1.13001382350921631
0.678488373756408691 2.30504846572875977 -1.11681103706359863
1.11172294616699219 2.63737130165100098 -1.0659637451171875
-0.615259051322937012 3.48679161071777344 -1.07202661037445068
0.0698770880699157715 2.84181594848632812 -1.16779398918151855
-2.851318359375 0.534140348434448242 -1.11678230762481689
-2.27623629570007324 1.61244857311248779 -0.893777966499328613
0.143193572759628296 2.79523992538452148 -1.17749333381652832
-1.89685916900634766 2.32569384574890137 -1.07678985595703125
-1.36560368537902832 2.81606864929199219 -1.22574770450592041
0.67908012866973877 2.17743468284606934 -1.1124037504196167
1.6713721752166748 3.96245217323303223 -0.151974186301231384
0.200626641511917114 1.35817825794219971 -1.13791203498840332
0.674071788787841797 2.18161821365356445 -1.12407171726226807
0.115347713232040405 2.49366879463195801 -1.15069425106048584
0.206037983298301697 1.36934065818786621 -1.11657536029815674
-0.307720482349395752 2.29581451416015625 -1.32916998863220215
-2.0322418212890625 1.93778955936431885 -0.990664422512054443
0.0680911540985107422 2.74061107635498047 -1.16834795475006104
-2.32925534248352051 3.29855465888977051 -0.919859945774078369
0.631324827671051025 4.75709629058837891 -0.621190130710601807
-0.135581374168395996 2.00276660919189453 -1.18259143829345703
1.46664369106292725 2.77022099494934082 -0.644869685173034668
-0.0128383636474609375 2.31162023544311523 -1.20500063896179199
0.514701724052429199 3.90928888320922852 -0.868458747863769531
0.0366788841784000397 2.6861417293548584 -1.16459095478057861
1.0895460844039917 2.66643047332763672 -1.07537472248077393
0.685062170028686523 4.3604583740234375 -0.677060961723327637
0.0241557992994785309 2.70731902122497559 -1.15946340560913086
0.601785957813262939 3.38436746597290039 -1.09025156497955322
-0.717198371887207031 4.34366893768310547 -0.216104522347450256
-0.580840229988098145 3.76681804656982422 -0.744127154350280762
0.785454630851745605 2.32139039039611816 -1.13518047332763672
0.033570803701877594 2.66035795211791992 -1.14723873138427734
-0.527680337429046631 4.26849889755249023 -0.57643592357635498
0.174145832657814026 1.43717384338378906 -1.1048508882522583
-0.830018520355224609 2.99096846580505371 -1.17218494415283203
0.199458792805671692 3.05429840087890625 -1.16534698009490967
0.0756369680166244507 2.69630217552185059 -1.16881704330444336
0.637852847576141357 4.2113490104675293 -0.299763143062591553
0.133979633450508118 4.15279006958007812 -0.738180637359619141
0.649898707866668701 3.76787590980529785 -0.835265636444091797
0.0293546803295612335 2.84385800361633301 -1.17070913314819336
0.903934955596923828 3.68519449234008789 -0.938026905059814453
1.11140310764312744 2.63791036605834961 -1.07219648361206055
2.73399996757507324 1.62195205688476562 -1.27496767044067383
0.0865972042083740234 2.62168478965759277 -1.16768622398376465
0.668398141860961914 2.17190217971801758 -1.13184452056884766
-0.207779571413993835 2.33342456817626953 -1.1559070348739624
0.921957015991210938 4.05784034729003906 -1.02645504474639893
0.224647581577301025 1.97495722770690918 -1.32140707969665527
-0.702757656574249268 3.79496192932128906 -0.549879014492034912
0.402448266744613647 3.16372036933898926 -1.09688889980316162
-1.08015692234039307 2.46108913421630859 -1.09054052829742432
-0.0349097251892089844 2.68282580375671387 -1.14241671562194824
-2.62051820755004883 4.99589920043945312 -0.897308468818664551
0.0415302366018295288 2.62779140472412109 -1.16263854503631592
-1.12515294551849365 3.64115071296691895 -1.15592658519744873
0.415929794311523438 2.67275857925415039 -1.07192730903625488
-0.902878046035766602 2.50760746002197266 -1.18284261226654053
-1.78680419921875 3.06918621063232422 -1.18463289737701416
1.02143967151641846 3.91148495674133301 -1.06186723709106445
-0.400981128215789795 3.76497817039489746 -1.17620515823364258
1.02188372611999512 4.14409828186035156 -1.05372428894042969
-1.29669451713562012 3.20896768569946289 -0.757552802562713623
0.880953669548034668 1.5669097900390625 -1.33933544158935547
-0.374009996652603149 2.10524225234985352 -1.16747236251831055
-2.28646087646484375 3.53333902359008789 -1.12121331691741943
0.869466125965118408 3.98271822929382324 -1.09416341781616211
-1.00161373615264893 3.66959810256958008 -0.759549558162689209
-0.281475931406021118 3.90405511856079102 -1.08389830589294434
0.488811373710632324 1.38115906715393066 -1.34096002578735352
-0.297130554914474487 2.13742256164550781 -1.19791102409362793
-0.950356543064117432 3.84392094612121582 -0.728362917900085449
2.05733680725097656 2.44440841674804688 -0.743207812309265137
-1.23349487781524658 3.60975384712219238 -0.393610954284667969
0.772864282131195068 3.51972651481628418 -1.11283516883850098
1.08965587615966797 2.66265249252319336 -1.08039236068725586
-0.356065124273300171 1.92014849185943604 -1.18831026554107666
-0.445664823055267334 1.98379373550415039 -1.20545816421508789
-2.19798111915588379 3.6101686954498291 -1.00210762023925781
-0.479718983173370361 2.2989659309387207 -1.20106983184814453
-1.33458828926086426 3.74189472198486328 -0.961192786693572998
0.0763803943991661072 2.77770853042602539 -1.16340124607086182
0.820029795169830322 3.97228598594665527 -1.08527147769927979
-1.22385084629058838 2.56584429740905762 -0.92625051736831665
1.09186530113220215 2.66912484169006348 -1.08330953121185303
-1.94878184795379639 3.63034176826477051 -1.18911921977996826
0.825271427631378174 3.95034217834472656 -1.10823309421539307
-1.5996708869934082 4.12902927398681641 -1.00141191482543945
0.572357356548309326 3.96695375442504883 -0.891855537891387939
0.355667471885681152 3.9377131462097168 -0.887683272361755371
-0.175783336162567139 2.2606499195098877 -1.18874609470367432
0.0284104980528354645 2.38777065277099609 -1.17740917205810547
1.00612485408782959 3.94457626342773438 -0.762365937232971191
-0.386690348386764526 1.96595191955566406 -1.19003713130950928
0.968775689601898193 4.71619033813476562 -0.843200564384460449
1.41632616519927979 4.49121999740600586 -1.00079512596130371
0.561895430088043213 4.50187540054321289 -0.42728087306022644
2.27222251892089844 3.72708892822265625 -0.790812015533447266
-0.92722010612487793 2.31567096710205078 -0.668758630752563477
0.405502796173095703 4.34814882278442383 -0.52255171537399292
-0.553323447704315186 1.90787374973297119 -1.16184794902801514
-1.02750778198242188 4.50121879577636719 -0.853427529335021973
0.959152698516845703 4.16304826736450195 -1.04125523567199707
